<svg xmlns="http://www.w3.org/2000/svg" viewBox="0 0 320.82063 150"><title>bookpile-to-phone</title><g id="Layer_3" data-name="Layer 3"><polygon points="210.767 102.162 208.291 99.933 221.478 85.293 208.291 70.653 210.767 68.425 225.961 85.293 210.767 102.162" fill="#c3c3c3"/><rect x="186.60953" y="83.62829" width="34.48281" height="3.32991" fill="#c3c3c3"/><path d="M319.43393,35.55189a5.9596,5.9596,0,0,0-5.95963-5.95963H258.20038a5.9596,5.9596,0,0,0-5.95963,5.95963v8.0334h67.19318Z" fill="#c1f7e4"/><path d="M320.82063,44.97225H250.85343V35.55159a7.35524,7.35524,0,0,1,7.34705-7.34705h55.27308a7.35524,7.35524,0,0,1,7.34705,7.34705Zm-67.19226-2.77493H318.0457V35.55159a4.577,4.577,0,0,0-4.57213-4.57213H258.20049a4.577,4.577,0,0,0-4.57213,4.57213Z" fill="#9a9a9a"/><polyline points="319.434 137.216 319.434 43.585 252.241 43.585 252.241 137.216" fill="#fff"/><polygon points="320.821 137.216 318.046 137.216 318.046 44.972 253.628 44.972 253.628 137.216 250.853 137.216 250.853 42.197 320.821 42.197 320.821 137.216" fill="#9a9a9a"/><line x1="262.9199" y1="83.08727" x2="302.87842" y2="83.08727" fill="#fff"/><rect x="262.92003" y="81.69993" width="39.95895" height="2.77493" fill="#fff"/><line x1="262.9199" y1="69.53886" x2="292.46727" y2="69.53886" fill="#fff"/><rect x="262.92003" y="68.15157" width="29.54647" height="2.77493" fill="#fff"/><line x1="262.9199" y1="64.302" x2="300.73303" y2="64.302" fill="#fff"/><rect x="262.92003" y="62.91497" width="37.81272" height="2.77493" fill="#fff"/><line x1="262.9199" y1="96.36637" x2="304.69506" y2="96.36637" fill="#fff"/><rect x="262.92003" y="94.97839" width="41.77566" height="2.77493" fill="#fff"/><line x1="262.9199" y1="109.6454" x2="302.87842" y2="109.6454" fill="#fff"/><rect x="262.92003" y="108.25794" width="39.95895" height="2.77493" fill="#9a9a9a"/><line x1="262.9199" y1="122.92451" x2="302.87842" y2="122.92451" fill="#fff"/><rect x="262.92003" y="121.53748" width="39.95895" height="2.77493" fill="#9a9a9a"/><line x1="262.9199" y1="116.28496" x2="308.57309" y2="116.28496" fill="#fff"/><rect x="262.92003" y="114.89717" width="45.65406" height="2.77493" fill="#9a9a9a"/><line x1="262.9199" y1="103.00585" x2="306.87494" y2="103.00585" fill="#fff"/><rect x="262.92003" y="101.61871" width="43.95442" height="2.77493" fill="#9a9a9a"/><line x1="262.9199" y1="89.72682" x2="308.57309" y2="89.72682" fill="#fff"/><rect x="262.92003" y="88.33916" width="45.65406" height="2.77493" fill="#fff"/><path d="M252.24075,142.65294a5.9596,5.9596,0,0,0,5.95963,5.95963H313.4743a5.9596,5.9596,0,0,0,5.95963-5.95963v-8.0334H252.24075Z" fill="#c1f7e4"/><path d="M313.47357,150H258.20049a7.35524,7.35524,0,0,1-7.34705-7.34705v-9.42066h69.96719v9.42066A7.35524,7.35524,0,0,1,313.47357,150Zm-59.84521-13.99279v6.64573a4.577,4.577,0,0,0,4.57213,4.57213h55.27308a4.577,4.577,0,0,0,4.57213-4.57213v-6.64573Z" fill="#9a9a9a"/><rect x="12.15727" y="61.02142" width="14.90361" height="85.18524" transform="matrix(0.96764, 0.25233, -0.25233, 0.96764, 26.77992, -1.5951)" fill="#fff"/><path d="M17.10483,148.412,0,143.95153,22.1127,58.81545,39.2197,63.277ZM3.38194,141.96572l11.73708,3.06,20.71874-79.7629L24.09851,62.20173Z" fill="#9a9a9a"/><line x1="34.1185" y1="76.74337" x2="19.69717" y2="72.98268" fill="#c1f7e4"/><rect x="25.52049" y="67.41132" width="2.77527" height="14.90313" transform="translate(-52.32188 82.01159) rotate(-75.38561)" fill="#9a9a9a"/><line x1="32.23572" y1="83.33312" x2="17.81439" y2="79.57243" fill="#c1f7e4"/><rect x="23.63603" y="74.00109" width="2.77636" height="14.9034" transform="matrix(0.25238, -0.96763, 0.96763, 0.25238, -60.10742, 85.10983)" fill="#9a9a9a"/><rect x="54.07489" y="41.06876" width="98.22388" height="14.90361" fill="#c1f7e4"/><path d="M153.68545,57.3597H52.68677V39.68146H153.68545ZM55.46169,54.58477h95.44883V42.45639H55.46169Z" fill="#9a9a9a"/><rect x="101.92222" y="41.06893" width="2.77493" height="14.90331" fill="#9a9a9a"/><rect x="138.90463" y="41.06893" width="2.77493" height="14.90331" fill="#9a9a9a"/><rect x="63.96208" y="41.06893" width="2.77493" height="14.90331" fill="#9a9a9a"/><rect x="73.70728" y="99.70744" width="88.28814" height="14.90361" fill="#fff"/><path d="M163.38252,115.99847H72.31938V98.32023h91.06314ZM75.0943,113.22354h85.51329V101.09516H75.0943Z" fill="#9a9a9a"/><path d="M167.58827,139.73385H65.14359v-11.607H167.58827Zm-99.66975-2.77493h96.89483v-6.05715H67.91852Z" fill="#9a9a9a"/><rect x="99.04922" y="93.47935" width="8.83177" height="99.66987" transform="translate(-39.84919 246.77938) rotate(-90)" fill="#c1f7e4"/><path d="M154.687,149.11766H52.24234v-11.607H154.687Zm-99.66975-2.77493H151.9121v-6.05715H55.01727Z" fill="#9a9a9a"/><rect x="93.4002" y="79.44785" width="14.90361" height="85.22999" transform="translate(-21.21084 222.91485) rotate(-90)" fill="#fff"/><path d="M144.85554,130.90178H56.84916V113.22354h88.00639Zm-85.23146-2.77493h82.45653V115.99847H59.62408Z" fill="#9a9a9a"/><rect x="61.44947" y="84.27271" width="82.85185" height="14.90361" fill="#c1f7e4"/><path d="M145.688,100.564H60.062V82.88578h85.626ZM62.83693,97.78909H142.9131V85.66071H62.83693Z" fill="#9a9a9a"/><rect x="94.76379" y="28.13407" width="13.24765" height="99.02963" transform="translate(23.73873 179.0365) rotate(-90)" fill="#fff"/><path d="M152.28932,85.66071H50.48633v-16.023h101.803ZM53.26126,82.88578h96.25313V72.4126H53.26126Z" fill="#9a9a9a"/><rect x="70.53103" y="56.12145" width="96.3801" height="14.90361" fill="#fff"/><path d="M168.29935,72.4126h-99.156V54.73436h99.156Zm-96.381-2.77493h93.6061V57.50929H71.91831Z" fill="#9a9a9a"/><circle cx="127.92718" cy="122.46704" r="2.972" fill="#9a9a9a"/><circle cx="72.1749" cy="92.11489" r="2.972" fill="#9a9a9a"/><circle cx="85.75846" cy="31.22408" r="9.84468" fill="#fff"/><path d="M85.75826,42.45639a11.23249,11.23249,0,1,1,11.232-11.232A11.24415,11.24415,0,0,1,85.75826,42.45639Zm0-19.69006a8.45757,8.45757,0,1,0,8.457,8.45811A8.46689,8.46689,0,0,0,85.75826,22.76633Z" fill="#9a9a9a"/><circle cx="115.11555" cy="31.22408" r="9.84468" fill="#fff"/><path d="M115.11613,42.45639a11.23249,11.23249,0,1,1,11.232-11.232A11.24415,11.24415,0,0,1,115.11613,42.45639Zm0-19.69006a8.45757,8.45757,0,1,0,8.457,8.45811A8.46689,8.46689,0,0,0,115.11613,22.76633Z" fill="#9a9a9a"/><path d="M104.734,33.46064l-2.15707-.90836a5.52842,5.52842,0,0,0-4.27946-.00108l-2.1549.90836-1.07962-2.556,2.1549-.90944a8.34544,8.34544,0,0,1,6.43653,0l2.1549.90836Z" fill="#9a9a9a"/><rect x="37.10694" y="48.50752" width="6.81532" height="99.02963" transform="translate(12.5009 -4.27646) rotate(7.14175)" fill="#c1f7e4"/><path d="M38.9422,149.12525l-9.515-1.19127L42.08568,46.919l9.51713,1.19235Zm-6.41485-3.59982,4.00847.50187L48.5027,50.51994l-4.01064-.503Z" fill="#9a9a9a"/><rect x="284.44957" width="2.77493" height="11.3436" fill="#9a9a9a"/><rect x="295.06091" y="7.98476" width="11.34369" height="2.77317" transform="translate(123.94754 252.83592) rotate(-55.80059)" fill="#9a9a9a"/><rect x="269.55472" y="3.69949" width="2.77317" height="11.34369" transform="translate(41.54595 153.85243) rotate(-34.1851)" fill="#9a9a9a"/><polygon points="301.228 67.371 298.732 68.161 294.923 66.69 301.228 64.695 301.228 62.57 291.898 65.522 288.089 64.051 301.228 59.894 301.228 57.769 285.065 62.883 268.629 56.535 268.671 70.194 283.919 65.37 283.919 68.047 268.671 72.871 268.671 74.996 283.919 70.172 283.919 72.848 268.671 77.672 268.671 79.797 283.919 74.973 283.919 77.648 268.671 82.473 268.671 84.598 283.919 79.773 283.919 82.45 268.671 87.274 268.671 89.399 284.918 84.258 301.234 90.559 301.228 67.371" fill="#a2f0d2"/></g></svg>