<?xml version="1.0" encoding="utf-8"?>
<!-- Generator: Adobe Illustrator 21.1.0, SVG Export Plug-In . SVG Version: 6.00 Build 0)  -->
<svg version="1.1" id="Layer_1" xmlns="http://www.w3.org/2000/svg" xmlns:xlink="http://www.w3.org/1999/xlink" x="0px" y="0px"
	 viewBox="0 0 320.82062 150" enable-background="new 0 0 320.82062 150" xml:space="preserve">
<g id="arrow">
	<polygon fill="#C3C3C3" points="210.76703,68.42499 208.29102,70.65302 219.97858,83.6283 186.60956,83.6283 186.60956,86.95819 
		219.97809,86.95819 208.29102,99.93298 210.76703,102.16199 225.961,85.29297 	"/>
</g>
<g id="leaning-book-1">
	
		<rect x="-14.19105" y="107.12251" transform="matrix(0.25138 -0.96789 0.96789 0.25138 -96.73465 101.30706)" fill="#FFFFFF" width="62.62739" height="12.13031"/>
	
		<rect x="23.61422" y="62.58084" transform="matrix(0.25141 -0.96788 0.96788 0.25141 -44.96347 79.15836)" fill="#FFFFFF" width="10.15493" height="12.13166"/>
	
		<rect x="24.16709" y="72.15413" transform="matrix(0.25139 -0.96789 0.96789 0.25139 -56.09041 83.91965)" fill="#FFFFFF" width="4.07614" height="12.13135"/>
	<path fill="#9A9A9A" d="M22.11267,58.81543L0,143.95154l17.10486,4.46045l22.11487-85.13501L22.11267,58.81543z M3.38196,141.9657
		l15.74359-60.61688l11.73853,3.06165L15.11902,145.0257L3.38196,141.9657z M35.83777,65.26282l-2.55304,9.82874l-11.73901-3.06097
		l2.5528-9.82886L35.83777,65.26282z M31.56207,81.72327l-11.73859-3.06171l1.0246-3.94482l11.73889,3.06091L31.56207,81.72327z"/>
</g>
<g id="book-piled-2">
	<path fill="#9A9A9A" d="M167.58827,139.73386H65.14359v-11.60699h102.44468V139.73386z M67.91853,136.95892h96.89483v-6.05714
		H67.91852L67.91853,136.95892z"/>
</g>
<g id="book-piled-3">
	<rect x="59.62408" y="115.99847" fill="#FFFFFF" width="82.45654" height="12.12836"/>
	<path fill="#9A9A9A" d="M144.85555,130.90178H56.84916v-17.67824h88.0064L144.85555,130.90178z M59.62408,128.12685h82.45653
		v-12.12838H59.62408L59.62408,128.12685z"/>
	<circle fill="#9A9A9A" cx="127.92718" cy="122.46704" r="2.972"/>
</g>
<g id="book-piled-5">
	<rect x="62.83691" y="85.66071" fill="#C1F7E4" width="80.07617" height="12.12836"/>
	<path fill="#9A9A9A" d="M145.688,100.564H60.062V82.88578H145.688V100.564z M62.83693,97.78909h80.07617V85.66071H62.83693
		V97.78909z"/>
	<circle fill="#9A9A9A" cx="72.1749" cy="92.11489" r="2.972"/>
</g>
<g id="sparks">
	<rect x="284.44958" fill="#9A9A9A" width="2.77493" height="11.3436"/>
	
		<rect x="295.06091" y="7.98476" transform="matrix(0.56207 -0.82709 0.82709 0.56207 123.94753 252.83592)" fill="#9A9A9A" width="11.34369" height="2.77317"/>
	
		<rect x="269.55472" y="3.69948" transform="matrix(0.82723 -0.56187 0.56187 0.82723 41.54597 153.85243)" fill="#9A9A9A" width="2.77316" height="11.34369"/>
</g>
<g id="phone">
	<path fill="none" d="M292.46729,69.53886"/>
	<path fill="none" d="M262.91989,96.36637"/>
	<g>
		<path fill="none" d="M318.04572,35.55157c-0.00269-2.52399-2.04816-4.56946-4.57214-4.57214H258.2005
			c-2.52399,0.00269-4.56946,2.04816-4.57214,4.57214v6.64545h64.41736V35.55157z"/>
		<path fill="none" d="M253.62836,142.65295c0.00269,2.52399,2.04816,4.56946,4.57214,4.57208h55.27307
			c2.52405-0.00262,4.56946-2.0481,4.57214-4.57208v-6.64575h-64.41736V142.65295z"/>
		<path fill="#FFFFFF" d="M253.62799,133.2323h64.41803V44.97223h-64.41803V133.2323z M262.92004,101.61871h43.95441v2.7749
			h-43.95441V101.61871z M262.92004,108.25793h39.95898v2.77496h-39.95898V108.25793z M262.92004,114.89716h45.65405v2.77496
			h-45.65405V114.89716z M262.92004,121.53748h39.95898v2.77496h-39.95898V121.53748z"/>
		<rect x="262.92004" y="108.25793" fill="#9A9A9A" width="39.95898" height="2.77496"/>
		<rect x="262.92004" y="121.53748" fill="#9A9A9A" width="39.95898" height="2.77496"/>
		<rect x="262.92004" y="114.89716" fill="#9A9A9A" width="45.65405" height="2.77496"/>
		<rect x="262.92004" y="101.61871" fill="#9A9A9A" width="43.95441" height="2.7749"/>
		<path fill="#9A9A9A" d="M320.82062,42.19702v-6.64545c-0.00452-4.05579-3.29126-7.34253-7.34705-7.34705H258.2005
			c-4.05579,0.00452-7.34253,3.29126-7.34705,7.34705v6.64545h-0.00043V137.216h0.00043v5.43695
			c0.00452,4.05579,3.29126,7.34253,7.34705,7.34705h55.27307c4.05579-0.00452,7.34259-3.29126,7.34711-7.34705V137.216h0.00037
			V42.19702H320.82062z M253.62836,35.55157c0.00269-2.52399,2.04816-4.56946,4.57214-4.57214h55.27307
			c2.52399,0.00269,4.56946,2.04816,4.57214,4.57214v6.64545h-64.41736V35.55157z M318.04572,142.65295
			c-0.00269,2.52399-2.0481,4.56946-4.57214,4.57208H258.2005c-2.52399-0.00262-4.56946-2.0481-4.57214-4.57208v-6.64575h64.41736
			V142.65295z M318.04602,133.2323h-64.41803V44.97223h64.41803V133.2323z"/>
	</g>
	<polygon fill="#A2F0D2" points="301.228,67.371 298.73199,68.161 294.923,66.69 301.228,64.695 301.228,62.57 291.89801,65.522 
		288.08899,64.051 301.228,59.894 301.228,57.769 285.065,62.883 268.629,56.535 268.67099,70.194 283.91901,65.37 
		283.91901,68.047 268.67099,72.871 268.67099,74.996 283.91901,70.172 283.91901,72.848 268.67099,77.672 268.67099,79.797 
		283.91901,74.973 283.91901,77.648 268.67099,82.473 268.67099,84.598 283.91901,79.773 283.91901,82.45 268.67099,87.274 
		268.67099,89.399 284.918,84.258 301.23401,90.559 	"/>
	<path fill="#C1F7E4" d="M313.47357,147.22504c2.52405-0.00262,4.56946-2.0481,4.57214-4.57208v-6.64575h-64.41736v6.64575
		c0.00269,2.52399,2.04816,4.56946,4.57214,4.57208H313.47357z"/>
	<path fill="#C1F7E4" d="M258.2005,30.97943c-2.52399,0.00269-4.56946,2.04816-4.57214,4.57214v6.64575h64.41736v-6.64575
		c-0.00269-2.52399-2.04816-4.56946-4.57214-4.57214H258.2005z"/>
</g>
<g id="leaning-book-2">
	<path fill="#9A9A9A" d="M42.08569,46.91901L29.42719,147.93396l9.51501,1.19128L51.60278,48.11133L42.08569,46.91901z
		 M36.53583,146.02728l-4.00848-0.50189l11.96472-95.50842l4.01062,0.50299L36.53583,146.02728z"/>
	
		<rect x="-7.61278" y="96.00195" transform="matrix(0.1243 -0.99224 0.99224 0.1243 -61.78374 126.03825)" fill="#C1F7E4" width="96.25452" height="4.04091"/>
</g>
<g id="spectacles">
	<path fill="#9A9A9A" d="M115.11517,19.99139c-5.82874,0.00031-10.61853,4.44067-11.17603,10.1228l-0.28473-0.12006
		c-2.0592-0.86066-4.37738-0.86066-6.43658,0l-0.28363,0.11969c-0.55774-5.68243-5.34796-10.12268-11.17694-10.12244
		c-6.20349,0.00031-11.23224,5.02948-11.23199,11.23297c0.00031,6.20355,5.02948,11.2323,11.23297,11.23199
		c5.53235-0.00592,10.11786-4.0105,11.04901-9.27698l1.49023-0.62817c1.36877-0.57416,2.91095-0.57379,4.27948,0.0011
		l1.48724,0.62628c0.92664,5.27014,5.51624,9.27802,11.05194,9.27777c6.20044-0.00665,11.22528-5.03149,11.23199-11.23199
		c0-0.00031,0-0.00061,0-0.00098C126.34784,25.0199,121.31866,19.99115,115.11517,19.99139z M94.21527,31.22449
		c-0.00031,4.67096-3.78717,8.45728-8.45813,8.45697c-4.67102-0.00031-8.45734-3.78717-8.45703-8.45813
		s3.78717-8.45734,8.45813-8.45697c4.66888,0.00543,8.45221,3.78925,8.45703,8.45807V31.22449z M123.57312,31.22449
		c-0.00031,4.67096-3.78717,8.45728-8.45813,8.45697s-8.45734-3.78717-8.45697-8.45813
		c0.00031-4.67096,3.78711-8.45734,8.45813-8.45697c4.66882,0.00543,8.45215,3.78925,8.45697,8.45807V31.22449z"/>
	<path fill="#FFFFFF" d="M85.75824,22.76636c-4.67096-0.00037-8.45782,3.78601-8.45813,8.45697s3.78601,8.45782,8.45703,8.45813
		c4.67096,0.00031,8.45782-3.78601,8.45813-8.45697v-0.00006C94.21045,26.5556,90.42712,22.77179,85.75824,22.76636z"/>
	<path fill="#FFFFFF" d="M123.57312,31.22449v-0.00006c-0.00482-4.66882-3.78815-8.45264-8.45697-8.45807
		c-4.67102-0.00037-8.45782,3.78601-8.45813,8.45697c-0.00037,4.67096,3.78601,8.45782,8.45697,8.45813
		S123.57281,35.89545,123.57312,31.22449z"/>
</g>
<g id="book-piled-8">
	<path fill="#9A9A9A" d="M52.68677,39.68146v17.67822h100.99872V39.68146H52.68677z M104.69714,42.45636h34.20752v12.12842
		h-34.20752V42.45636z M101.92224,54.58478H66.737V42.45636h35.18524V54.58478z M55.46167,42.45636h8.50043v12.12842h-8.50043
		V42.45636z M150.91052,54.58478h-9.23096V42.45636h9.23096V54.58478z"/>
	<rect x="55.46167" y="42.45636" fill="#C1F7E4" width="8.50043" height="12.12842"/>
	<rect x="104.69714" y="42.45636" fill="#C1F7E4" width="34.20752" height="12.12842"/>
	<rect x="141.67957" y="42.45636" fill="#C1F7E4" width="9.23096" height="12.12842"/>
	<rect x="66.737" y="42.45636" fill="#C1F7E4" width="35.18524" height="12.12842"/>
</g>
<g id="book-piled-7">
	<path fill="#9A9A9A" d="M168.29935,72.4126h-99.156V54.73436h99.156V72.4126z M71.91835,69.63766h93.60609V57.50929H71.91831
		L71.91835,69.63766z"/>
	<rect x="71.91833" y="57.50928" fill="#FFFFFF" width="93.60614" height="12.12836"/>
</g>
<g id="book-piled-6">
	<path fill="#9A9A9A" d="M152.28932,85.66071H50.48633v-16.023h101.80301L152.28932,85.66071z M53.26126,82.88578h96.25313V72.4126
		H53.26126V82.88578z"/>
	<rect x="53.26129" y="72.4126" fill="#FFFFFF" width="96.25311" height="10.47321"/>
</g>
<g id="book-piled-4">
	<path fill="#9A9A9A" d="M163.38252,115.99847H72.31938V98.32023h91.06314V115.99847z M75.0943,113.22354h85.51329v-12.12838
		H75.0943V113.22354z"/>
	<rect x="75.0943" y="101.09515" fill="#FFFFFF" width="85.51331" height="12.12836"/>
</g>
<g id="book-piled-1">
	<path fill="#9A9A9A" d="M154.687,149.11766H52.24234v-11.60699H154.687V149.11766z M55.01725,146.34273h96.89484v-6.05714H55.01727
		L55.01725,146.34273z"/>
	<rect x="55.01727" y="140.28558" fill="#C1F7E4" width="96.89484" height="6.05713"/>
</g>
</svg>
