<?xml version="1.0" encoding="utf-8"?>
<!-- Generator: Adobe Illustrator 21.1.0, SVG Export Plug-In . SVG Version: 6.00 Build 0)  -->
<svg version="1.1" id="Layer_1" xmlns="http://www.w3.org/2000/svg" xmlns:xlink="http://www.w3.org/1999/xlink" x="0px" y="0px"
	 viewBox="0 0 66.15604 47.37595" enable-background="new 0 0 66.15604 47.37595" xml:space="preserve">
<g>
	<path fill="#ADB744" d="M15.1369,47.14044c-0.43106,0-0.86212,0-1.29318,0c-0.91192,0-1.82384,0.00002-2.73576,0
		c-0.25669,0-0.51345-0.00391-0.77006,0.00073c-0.44712,0.00809-0.89412,0.02995-1.34121,0.03105
		c-1.60205,0.00391-3.20413,0.00249-4.80619,0.00014c-0.17312-0.00026-0.34625-0.02859-0.51931-0.02784
		c-0.18143,0.0008-0.36264,0.02794-0.54417,0.03128c-0.43958,0.00813-0.88001,0.02573-1.3187,0.00696
		c-0.27918-0.01193-0.5631-0.05669-0.83168-0.13314c-0.28055-0.07986-0.50518-0.26287-0.68875-0.50021
		c-0.2255-0.29156-0.3214-0.60924-0.27754-0.9739c0.01082-0.09002-0.00086-0.18252,0.00259-0.2737
		c0.00282-0.07445-0.00477-0.15592,0.02258-0.22165c0.12059-0.28973,0.25097-0.57543,0.38085-0.8612
		c0.0237-0.05216,0.06901-0.09465,0.09173-0.14707c0.11816-0.27266,0.22683-0.54952,0.34914-0.82025
		c0.13916-0.30801,0.29005-0.61071,0.43426-0.91647c0.10585-0.22443,0.21077-0.44933,0.31318-0.67535
		c0.13997-0.30892,0.2739-0.62061,0.41651-0.92828c0.13183-0.2844,0.27533-0.5634,0.40688-0.84793
		c0.11434-0.24732,0.21603-0.50046,0.32896-0.74845c0.15084-0.33125,0.30883-0.65923,0.46061-0.99006
		c0.14465-0.31528,0.28562-0.63226,0.42754-0.94879c0.11837-0.26401,0.23354-0.52948,0.3542-0.79243
		c0.14152-0.30843,0.28819-0.61448,0.43125-0.9222c0.13609-0.29273,0.27228-0.58545,0.40472-0.87983
		c0.06773-0.15055,0.12616-0.30526,0.19112-0.45708c0.02923-0.06832,0.06481-0.1339,0.09638-0.20124
		c0.07357-0.15693,0.14572-0.31453,0.21976-0.47124c0.12669-0.26813,0.25583-0.5351,0.38126-0.80381
		c0.13285-0.28461,0.26125-0.57129,0.39398-0.85596c0.15032-0.32239,0.30406-0.64318,0.45453-0.9655
		c0.03484-0.07464,0.06317-0.15237,0.09322-0.22918c0.04217-0.10778,0.07352-0.22104,0.1267-0.32298
		c0.10101-0.19367,0.15983-0.39823,0.19819-0.61156c0.01598-0.08887,0.03247-0.18402,0.07647-0.26031
		c0.1422-0.24659,0.16422-0.51643,0.18532-0.79c0.00944-0.12241,0.02592-0.2487,0.06672-0.36344
		c0.12651-0.35575,0.18878-0.71899,0.18251-1.09659c-0.00246-0.14806,0.02733-0.29654,0.02673-0.44477
		c-0.00096-0.23964-0.02191-0.47924-0.02142-0.71882c0.00051-0.24778,0.0236-0.4955,0.02446-0.74329
		c0.00318-0.92139,0.00127-1.84279,0.00127-2.76418c0-3.17922,0.00291-6.35846-0.0035-9.53767
		c-0.00085-0.42077-0.04962-0.84142-0.075-1.2622c-0.00449-0.07446-0.00537-0.14932-0.00409-0.22393
		c0.01612-0.9365,0.03261-1.87299,0.04973-2.80948c0.0103-0.5633,0.03142-1.12663,0.02888-1.68986
		C7.52727,6.69052,7.48472,6.40248,7.4605,6.11439C7.45843,6.08971,7.4529,6.06532,7.45082,6.04064
		C7.42277,5.70713,7.57918,5.55861,7.90883,5.60538c0.18248,0.02589,0.29775,0.14278,0.31813,0.32833
		c0.00631,0.05746,0.00569,0.11632,0.00201,0.17415c-0.0289,0.45416,0.00961,0.90813,0.00218,1.36234
		C8.22383,7.91832,8.23602,8.36678,8.22768,8.81487c-0.00786,0.42201-0.03784,0.84361-0.04497,1.26562
		c-0.00319,0.18931,0.02662,0.37909,0.0394,0.5688c0.00501,0.07431,0.00843,0.14915,0.00557,0.22348
		c-0.00857,0.223-0.02982,0.44586-0.0299,0.66879c-0.00178,4.8726-0.00344,9.7452,0.00257,14.61779
		c0.00048,0.39149-0.05209,0.77631-0.07671,1.16441c-0.01619,0.25531-0.04255,0.51061-0.07903,0.7638
		c-0.02942,0.20415-0.07833,0.40569-0.1231,0.60738c-0.05546,0.24981-0.11598,0.4985-0.17324,0.74792
		c-0.00924,0.04026-0.00642,0.08414-0.02016,0.12239c-0.13095,0.36464-0.25553,0.73193-0.3994,1.09147
		c-0.13818,0.34531-0.29163,0.68484-0.44809,1.02241c-0.23299,0.5027-0.47703,1.00027-0.71138,1.50236
		c-0.11887,0.25468-0.2247,0.51543-0.34024,0.77171c-0.14609,0.32404-0.30573,0.64232-0.4417,0.97047
		c-0.13923,0.336-0.33138,0.64606-0.44539,0.99598c-0.08883,0.27263-0.24172,0.52427-0.36462,0.78595
		c-0.05607,0.11939-0.10764,0.24088-0.16272,0.36075c-0.12763,0.27775-0.25412,0.55606-0.38489,0.83234
		c-0.12721,0.26875-0.2595,0.53508-0.38893,0.80277c-0.08995,0.18603-0.20116,0.36552-0.26277,0.56061
		c-0.08313,0.26322-0.23528,0.48941-0.34434,0.73774c-0.14535,0.33097-0.29622,0.65952-0.44437,0.98927
		c-0.02035,0.0453-0.0402,0.09096-0.0575,0.13749c-0.01732,0.04658-0.02536,0.09737-0.04755,0.14122
		c-0.07395,0.14607-0.16437,0.28499-0.22581,0.43588c-0.06175,0.15165-0.07106,0.32479-0.19391,0.45088
		c-0.01696,0.01741-0.02976,0.04043-0.03965,0.06297c-0.12261,0.27933-0.24302,0.55963-0.36699,0.83834
		c-0.04345,0.09768-0.0956,0.19147-0.14279,0.28753c-0.03646,0.07419-0.0719,0.1489-0.10685,0.22382
		c-0.06281,0.13465-0.12712,0.26866-0.18655,0.4048c-0.04246,0.09724-0.07664,0.19806-0.11707,0.29624
		c-0.02493,0.06052-0.05106,0.12114-0.08342,0.17783c-0.02441,0.04277-0.06196,0.07782-0.08942,0.11911
		c-0.05193,0.07809-0.30653,0.97513-0.30549,1.06788c0.00362,0.32246,0.26471,0.68884,0.58121,0.79467
		c0.25283,0.08455,0.51682,0.11612,0.78322,0.11444c0.50604-0.00318,1.0121-0.00779,1.51806-0.01705
		c0.23137-0.00423,0.46427-0.04468,0.69343-0.02767c0.804,0.0597,1.60835,0.01555,2.41235,0.02663
		c0.25594,0.00352,0.51225-0.02846,0.7684-0.02861c0.25614-0.00015,0.51227,0.02724,0.76845,0.02781
		c0.27283,0.0006,0.54563-0.01983,0.81855-0.02413c0.25697-0.00405,0.51413-0.00173,0.77111,0.00289
		c0.18169,0.00326,0.36329,0.02243,0.54481,0.02095c0.18981-0.00154,0.37946-0.02772,0.56923-0.02848
		c0.83837-0.00337,1.67677-0.00145,2.51515-0.00145c1.01206,0,2.02413,0.00214,3.03618-0.00061
		c0.99526-0.0027,1.99051-0.01107,2.98577-0.01511c0.14077-0.00057,0.28166,0.00771,0.42236,0.01462
		c0.50441,0.02478,0.94516-0.125,1.32235-0.46579c0.19738-0.17834,0.24663-0.40603,0.23747-0.65288
		c-0.00488-0.13148-0.03181-0.26265-0.05515-0.39282c-0.02495-0.13916-0.06158-0.27453-0.16121-0.38404
		c-0.02734-0.03005-0.04775-0.06823-0.06463-0.10569c-0.17322-0.38422-0.36672-0.75766-0.56981-1.12717
		c-0.1343-0.24432-0.23409-0.50747-0.35298-0.76048c-0.03506-0.07462-0.08514-0.14205-0.12363-0.21524
		c-0.04989-0.09488-0.09695-0.19136-0.1419-0.28868c-0.09353-0.20253-0.17893-0.40904-0.27856-0.60847
		c-0.1327-0.26562-0.28007-0.5239-0.41321-0.78931c-0.14795-0.29496-0.28349-0.59614-0.43094-0.89137
		c-0.12937-0.25904-0.26811-0.5134-0.4019-0.77024c-0.03809-0.07314-0.07275-0.14805-0.10992-0.22167
		c-0.05554-0.10999-0.11186-0.2196-0.16796-0.32932c-0.03006-0.05878-0.06118-0.11705-0.09034-0.17627
		c-0.05837-0.11851-0.11635-0.23723-0.17332-0.35643c-0.04931-0.10318-0.09771-0.20683-0.14505-0.31093
		c-0.01707-0.03753-0.02396-0.08072-0.04556-0.11499c-0.21232-0.33697-0.3585-0.70672-0.5316-1.06314
		c-0.0904-0.18613-0.18813-0.36873-0.28346-0.55244c-0.23612-0.45505-0.47933-0.90657-0.70737-1.36563
		c-0.23171-0.46645-0.44702-0.94102-0.67296-1.41038c-0.07902-0.16417-0.17139-0.32187-0.25225-0.48521
		c-0.18357-0.37081-0.35575-0.74749-0.5478-1.11378c-0.16544-0.31553-0.31697-0.63641-0.45558-0.96433
		c-0.22267-0.52679-0.41117-1.06693-0.55905-1.61739c-0.13277-0.49418-0.21884-1.00165-0.30889-1.50622
		c-0.03901-0.21855-0.04911-0.44448-0.05031-0.66718c-0.00518-0.96287-0.00149-1.92579-0.00296-2.88869
		c-0.00024-0.1574-0.01599-0.31485-0.01419-0.47217c0.00227-0.19842,0.07124-0.27859,0.26475-0.28503
		c0.26929-0.00896,0.4597,0.09646,0.42971,0.43392c-0.06843,0.77008-0.01628,1.54162-0.03188,2.31232
		c-0.00974,0.48134,0.05036,0.9578,0.10586,1.43462c0.02959,0.25419,0.04152,0.51073,0.0792,0.76356
		c0.02531,0.16984,0.0823,0.3349,0.12416,0.50234c0.04186,0.16741,0.08208,0.33523,0.12388,0.50265
		c0.02789,0.11171,0.0512,0.22506,0.08731,0.33412c0.07018,0.21197,0.14788,0.42145,0.22253,0.63193
		c0.01663,0.04687,0.02957,0.09555,0.05093,0.14018c0.23552,0.49209,0.46985,0.98477,0.70949,1.47486
		c0.30563,0.62504,0.61365,1.24894,0.92466,1.87131c0.32193,0.64421,0.64923,1.28572,0.97265,1.92918
		c0.04453,0.08861,0.07856,0.18243,0.12051,0.27242c0.0418,0.08965,0.08685,0.1778,0.1316,0.26604
		c0.03717,0.0733,0.07677,0.14539,0.11388,0.21872c0.05965,0.11784,0.11761,0.23655,0.17724,0.35439
		c0.10444,0.20641,0.21278,0.4109,0.31368,0.61901c0.12616,0.26024,0.24438,0.52431,0.3699,0.78486
		c0.10398,0.21582,0.21034,0.43062,0.32154,0.64279c0.13809,0.2635,0.28752,0.52113,0.42228,0.78628
		c0.13101,0.25775,0.24729,0.52293,0.37438,0.78273c0.13744,0.28094,0.28,0.55938,0.42009,0.83904
		c0.03324,0.06636,0.06466,0.13364,0.09844,0.19972c0.05606,0.10964,0.1127,0.21899,0.17056,0.32769
		c0.01551,0.02913,0.0449,0.05305,0.05336,0.08341c0.06295,0.2262,0.19786,0.41687,0.2981,0.6245
		c0.07151,0.14812,0.11234,0.30898,0.22906,0.43523c0.0364,0.03938,0.04435,0.10508,0.06521,0.15877
		c0.02394,0.06163,0.04163,0.12658,0.07267,0.18439c0.14035,0.26141,0.31519,0.50917,0.41914,0.78397
		c0.12015,0.31758,0.3538,0.58224,0.4101,0.9276c0.0142,0.08706,0.07276,0.16626,0.10623,0.25093
		c0.11373,0.28766,0.12806,0.56402-0.01245,0.85933c-0.12305,0.25862-0.24793,0.50544-0.47536,0.68546
		c-0.1096,0.08675-0.22596,0.16507-0.34052,0.24541c-0.02687,0.01884-0.06341,0.02506-0.08783,0.04603
		c-0.22008,0.18902-0.4801,0.23781-0.76151,0.23926c-0.28099,0.00145-0.5618,0.03219-0.84282,0.03461
		c-0.64742,0.00558-1.29491,0.00177-1.94238,0.00177c-0.80444,0-1.60887,0-2.41331,0
		C15.13691,47.12945,15.13691,47.13495,15.1369,47.14044z"/>
	<path fill="#333333" d="M56.71166,33.08604c0.10922,0.01862,0.16556-0.03659,0.21445-0.11015
		c0.30012-0.45144,0.73396-0.75712,1.16589-1.06413c0.1078-0.07662,0.22227-0.14384,0.33336-0.21587
		c0.02081-0.01349,0.03805-0.03652,0.06044-0.04294c0.31765-0.09113,0.58529-0.30882,0.92083-0.35764
		c0.13018-0.01894,0.26294-0.05059,0.38297-0.10295c0.33721-0.1471,0.69265-0.1516,1.04856-0.15407
		c0.28181-0.00195,0.56373,0.00656,0.84553,0.0136c0.05698,0.00143,0.11843,0.00597,0.16958,0.0281
		c0.2691,0.11642,0.55754,0.15129,0.83992,0.21352c0.11105,0.02447,0.21528,0.08068,0.32195,0.12407
		c0.11379,0.04629,0.22675,0.09462,0.34016,0.14183c0.03818,0.0159,0.08059,0.02513,0.1144,0.04749
		c0.39975,0.26437,0.8018,0.52174,1.15831,0.8497c0.69103,0.63569,1.13377,1.41807,1.40894,2.30111
		c0.07272,0.23337,0.10555,0.48682,0.11092,0.73204c0.01472,0.67115,0.00507,1.34283,0.00507,2.01431
		c0.00001,1.78342,0.00139,3.56684-0.00223,5.35025c-0.00035,0.1725-0.00961,0.35078-0.0533,0.51619
		c-0.09708,0.36758-0.21238,0.73111-0.39875,1.06652c-0.09616,0.17305-0.19418,0.34509-0.28964,0.51853
		c-0.18949,0.34423-0.44663,0.64207-0.72586,0.90666c-0.28512,0.27016-0.55869,0.56413-0.92778,0.73987
		c-0.25984,0.12373-0.49982,0.28864-0.75362,0.42601c-0.06958,0.03766-0.15697,0.05841-0.23625,0.05858
		c-0.13745,0.0003-0.26104,0.03368-0.38041,0.09665c-0.21772,0.11479-0.45273,0.1575-0.69609,0.1557
		c-0.48099-0.00356-0.9621-0.00515-1.44283-0.01921c-0.14678-0.00429-0.29646-0.0331-0.43769-0.07482
		c-0.21312-0.06295-0.41039-0.17836-0.64101-0.1843c-0.03899-0.00101-0.07977-0.02344-0.11562-0.04337
		c-0.51349-0.2855-1.02871-0.56729-1.48419-0.94535c-0.23749-0.19714-0.45124-0.4135-0.62843-0.66557
		c-0.05334-0.07587-0.10543-0.14868-0.21253-0.15694c-0.10907,0.08278-0.06624,0.19169-0.05495,0.29419
		c0.02257,0.20499,0.06656,0.4104,0.06236,0.61484c-0.00472,0.23039,0.00162,0.46,0.00726,0.68973
		c0.00372,0.15175-0.05156,0.27267-0.15222,0.38026c-0.12613,0.1348-0.26908,0.17915-0.44846,0.1117
		c-0.17569-0.06606-0.26853-0.18666-0.27917-0.37126c-0.00429-0.07444-0.00211-0.14935-0.00079-0.224
		c0.01056-0.59628,0.0252-1.19252,0.03051-1.78885c0.00177-0.19786-0.03336-0.39623-0.02906-0.59388
		c0.07286-3.3511,0.01068-6.70259,0.02974-10.05382c0.0008-0.13984-0.02076-0.27969-0.02831-0.41974
		c-0.00446-0.08274-0.00499-0.166-0.00178-0.24881c0.00897-0.23122,0.02991-0.46231,0.0301-0.69348
		c0.0022-2.60559,0.00204-5.21117-0.00003-7.81676c-0.00014-0.18134-0.02287-0.36256-0.03079-0.54402
		c-0.0075-0.1716,0.08339-0.2791,0.23621-0.34227c0.24408-0.10088,0.54324,0.04571,0.60838,0.3034
		c0.02,0.07911,0.03201,0.16299,0.03024,0.24431c-0.00393,0.18143-0.02776,0.36262-0.02797,0.54393
		c-0.00219,1.94174-0.00251,3.88349,0.00006,5.82523c0.00033,0.24778,0.01987,0.49555,0.03086,0.74331
		c0.01329,0.2992-0.01258,0.59516-0.06938,0.88902C56.65096,32.88857,56.62155,32.98841,56.71166,33.08604z M56.70663,39.21275
		c0,1.16972,0.00106,2.33944-0.0005,3.50917c-0.00067,0.49866,0.1384,0.9705,0.33535,1.41459
		c0.17345,0.39111,0.42468,0.74875,0.73821,1.05081c0.32772,0.31572,0.67058,0.60687,1.07929,0.82396
		c0.38275,0.20331,0.77187,0.37599,1.19779,0.44941c0.82657,0.1425,1.64468,0.12622,2.45241-0.13598
		c0.51388-0.1668,0.96238-0.44017,1.36916-0.78475c0.44072-0.37334,0.77621-0.83782,1.06711-1.33121
		c0.08936-0.15157,0.11359-0.34124,0.17023-0.51261c0.0155-0.04688,0.0383-0.09174,0.06132-0.13566
		c0.11027-0.21041,0.15746-0.43298,0.14839-0.67104c-0.00405-0.1063,0.02026-0.21336,0.02415-0.32035
		c0.00544-0.14904,0.0177-0.29976,0.00256-0.44725c-0.04241-0.41323-0.04691-0.82501,0.00168-1.23772
		c0.00767-0.06514-0.00012-0.13237-0.00365-0.19848c-0.00789-0.14832-0.02686-0.29667-0.02469-0.44477
		c0.00519-0.35563,0.02328-0.71106,0.02904-1.0667c0.002-0.12314-0.02572-0.24669-0.02486-0.36994
		c0.00282-0.40302,0.01248-0.80598,0.01973-1.20896c0.0015-0.08277,0.00819-0.1657,0.00504-0.24826
		c-0.00819-0.2146-0.02856-0.42903-0.02888-0.64355c-0.00029-0.19785,0.0284-0.39578,0.02754-0.59359
		c-0.00105-0.23939-0.01601-0.47896-0.03228-0.71795c-0.00893-0.13138-0.00311-0.27542-0.05571-0.39001
		c-0.16475-0.35899-0.24119-0.75113-0.45918-1.09206c-0.34834-0.54479-0.75186-1.02164-1.30701-1.37112
		c-0.45599-0.28705-0.95897-0.43843-1.46457-0.59226c-0.0312-0.00949-0.06552-0.01097-0.09851-0.01196
		c-0.39698-0.01193-0.79392-0.02806-1.19099-0.03302c-0.39775-0.00497-0.79274,0.00916-1.16085,0.19675
		c-0.09326,0.04753-0.20709,0.05402-0.31069,0.08223c-0.06331,0.01723-0.129,0.03231-0.18685,0.06168
		c-0.13977,0.07096-0.28007,0.14272-0.41195,0.22699c-0.20869,0.13335-0.42904,0.25682-0.61134,0.42119
		c-0.30061,0.27105-0.57669,0.56569-0.80299,0.9099c-0.26104,0.39706-0.37791,0.84155-0.50648,1.28571
		c-0.00686,0.02369-0.00992,0.04902-0.01101,0.07375c-0.01242,0.28083-0.03332,0.56166-0.03438,0.84255
		C56.70421,37.07238,56.70663,38.14257,56.70663,39.21275z"/>
	<path fill="#333333" d="M48.22599,45.03604c-0.06396,0.11401-0.12247,0.22242-0.18475,0.3286
		c-0.20061,0.34201-0.48811,0.60442-0.79306,0.84807c-0.20006,0.15985-0.40891,0.30892-0.61715,0.45816
		c-0.05986,0.0429-0.13096,0.07031-0.19751,0.10364c-0.11103,0.05559-0.23262,0.09643-0.33146,0.16856
		c-0.14053,0.10257-0.28492,0.15636-0.46022,0.15199c-0.07845-0.00196-0.16524,0.02671-0.23572,0.06471
		c-0.24062,0.12977-0.49932,0.17809-0.76672,0.17807c-0.52256-0.00004-1.04552,0.00091-1.5675-0.01939
		c-0.2537-0.00988-0.51263-0.02955-0.74794-0.1533c-0.06473-0.03403-0.14069-0.06198-0.21247-0.06446
		c-0.22466-0.00779-0.40782-0.11737-0.60405-0.20726c-0.34808-0.15945-0.67984-0.34243-0.98567-0.57216
		c-0.39486-0.2966-0.72961-0.64737-0.98565-1.07313c-0.11491-0.19108-0.2644-0.36283-0.29629-0.59454
		c-0.1928-0.2352-0.25407-0.50719-0.24782-0.80672c0.00196-0.09368-0.05664-0.18857-0.08727-0.283
		c-0.18168-0.56009-0.19471-1.12013-0.00036-1.68041c0.03258-0.09392,0.07-0.18712,0.0915-0.2837
		c0.03556-0.15971,0.03057-0.32356,0.11874-0.47665c0.24885-0.43209,0.50771-0.85308,0.88938-1.18535
		c0.46074-0.40109,0.97797-0.70611,1.53727-0.94915c0.23515-0.10218,0.47877-0.17875,0.71341-0.27422
		c0.28734-0.11693,0.58168-0.17689,0.87886-0.24348c0.30603-0.06856,0.60565-0.18192,0.91471-0.21664
		c0.35643-0.04004,0.68809-0.1851,1.04231-0.21158c0.57322-0.04287,1.1218-0.20572,1.67949-0.32352
		c0.54197-0.11448,0.96833-0.41464,1.29999-0.85356c0.02439-0.03229,0.04433-0.07139,0.05457-0.1104
		c0.06507-0.24821,0.14772-0.49443,0.1823-0.74709c0.0228-0.16657-0.0179-0.3439-0.04307-0.5145
		c-0.04096-0.27759-0.09266-0.5536-0.13935-0.83035c-0.00819-0.04858-0.00388-0.10194-0.02271-0.1456
		c-0.09776-0.2267-0.17611-0.46709-0.3083-0.6724c-0.21458-0.33329-0.44006-0.66253-0.74156-0.93061
		c-0.40062-0.3562-0.83453-0.65142-1.35878-0.79451c-0.04789-0.01307-0.09751-0.02497-0.14122-0.04737
		c-0.30579-0.15667-0.64077-0.15359-0.96935-0.16951c-0.30637-0.01484-0.61486-0.01736-0.92087,0.00069
		c-0.32735,0.01931-0.66563-0.00315-0.96828,0.16877c-0.02782,0.0158-0.06302,0.02093-0.09557,0.02573
		c-0.49266,0.07273-0.90721,0.33109-1.28313,0.62196c-0.39087,0.30243-0.73132,0.67093-0.92319,1.15076
		c-0.06997,0.175-0.18124,0.33498-0.28482,0.49457c-0.08775,0.13519-0.23009,0.15344-0.375,0.12429
		c-0.26946-0.05422-0.42864-0.34685-0.29902-0.58988c0.16314-0.30588,0.35328-0.59774,0.53893-0.89112
		c0.25686-0.40592,0.60813-0.72439,0.99648-0.99543c0.25563-0.1784,0.51117-0.36816,0.8174-0.46232
		c0.03141-0.00966,0.06522-0.02007,0.09056-0.03964c0.19082-0.14739,0.41835-0.18893,0.646-0.23795
		c0.19352-0.04166,0.38071-0.11338,0.57462-0.15232c0.18539-0.03722,0.37535-0.06272,0.56416-0.06959
		c0.36456-0.01326,0.72988-0.01704,1.09454-0.00912c0.12045,0.00261,0.23995,0.05286,0.35968,0.08214
		c0.21663,0.05298,0.43315,0.10639,0.64961,0.16003c0.06401,0.01586,0.13025,0.02668,0.19103,0.05092
		c0.19838,0.07909,0.38161,0.18851,0.58373,0.26545c0.21156,0.08054,0.39374,0.24078,0.58496,0.37173
		c0.3437,0.2354,0.66,0.50706,0.90899,0.83947c0.17188,0.22947,0.3856,0.43573,0.47999,0.71975
		c0.01766,0.05316,0.06083,0.09769,0.09124,0.14682c0.03049,0.04925,0.07462,0.0958,0.08714,0.14951
		c0.0881,0.37788,0.31253,0.71466,0.33599,1.11123c0.01657,0.28002,0.03856,0.56017,0.04157,0.84045
		c0.00953,0.88766,0.0132,1.77541,0.01506,2.66313c0.00073,0.34823-0.0145,0.6965-0.0135,1.04473
		c0.0023,0.80474,0.01392,1.60946,0.01441,2.4142c0.00039,0.65533-0.00896,1.31067-0.01588,1.96599
		c-0.003,0.2838,0.02524,0.56211,0.12026,0.83165c0.02192,0.06221,0.04313,0.12696,0.04943,0.19202
		c0.03017,0.31184,0.1482,0.60069,0.29985,0.86131c0.2331,0.40062,0.53202,0.74677,1.06279,0.74055
		c0.23256-0.00273,0.38362,0.1368,0.50731,0.31122c0.06804,0.09596,0.06793,0.19635-0.00091,0.30093
		c-0.13822,0.20996-0.3321,0.28913-0.57533,0.26622c-0.43616-0.04109-0.80866-0.22622-1.13707-0.50773
		c-0.28039-0.24035-0.49828-0.53651-0.67109-0.85588c-0.13605-0.25144-0.27465-0.51013-0.33051-0.79819
		C48.3779,45.12688,48.36608,45.04446,48.22599,45.03604z M48.29782,37.96892c-0.2203,0.01147-0.22537,0.00607-0.33502,0.10901
		c-0.18589,0.17451-0.41824,0.27966-0.64676,0.35549c-0.37516,0.12449-0.7674,0.20345-1.15709,0.27681
		c-0.64133,0.12073-1.28846,0.21096-1.92919,0.33455c-0.45412,0.0876-0.90612,0.19341-1.35115,0.31908
		c-0.61482,0.1736-1.20348,0.4172-1.753,0.74807c-0.08511,0.05125-0.17456,0.09681-0.25381,0.15599
		c-0.36142,0.26986-0.66443,0.59543-0.91103,0.97336c-0.03787,0.05804-0.33629,0.87929-0.33654,0.94993
		c-0.00138,0.38099-0.0383,0.76719,0.01199,1.14151c0.04756,0.35397,0.14421,0.71604,0.29624,1.03823
		c0.3272,0.69347,0.80998,1.25882,1.51525,1.6124c0.43701,0.21909,0.87546,0.41143,1.36884,0.47311
		c0.6596,0.08246,1.31515,0.12493,1.97839,0.03446c0.3833-0.05227,0.74533-0.16821,1.08951-0.32643
		c0.75049-0.34502,1.30538-0.91939,1.78039-1.58245c0.18608-0.25974,0.26558-0.56881,0.42447-0.84004
		c0.02743-0.04681,0.02578-0.11114,0.03552-0.16773c0.04342-0.2522,0.08282-0.50515,0.12989-0.75666
		c0.05341-0.28543,0.09634-0.57068,0.06288-0.86232c-0.01221-0.10642-0.02186-0.21333-0.02721-0.32029
		c-0.01897-0.3791,0.04053-0.75799,0.00188-1.13775c-0.00903-0.0887,0.01879-0.1805,0.01907-0.2709
		c0.00121-0.39744,0.00395-0.795-0.00466-1.1923c-0.00553-0.25503-0.05707-0.50808,0.00531-0.76497
		C48.33353,38.1804,48.30462,38.07948,48.29782,37.96892z"/>
	<path fill="#333333" d="M36.3308,47.05323c-0.24627,0.17686-0.48082,0.29991-0.77591,0.23981
		c-0.07178-0.01462-0.14894-0.00314-0.22363-0.00314c-2.9627-0.00006-5.9254-0.0023-8.88808,0.00441
		c-0.22679,0.00051-0.39945-0.06964-0.55697-0.2195c-0.08369-0.07962-0.1309-0.16605-0.12564-0.28336
		c0.00854-0.19042,0.01638-0.38105,0.01659-0.57161c0.00142-1.27802,0.00074-2.55605,0.00074-3.83408
		c0-3.14484,0.00056-6.28969-0.00073-9.43453c-0.00015-0.37312-0.01571-0.74624-0.01507-1.11934
		c0.00378-2.20717,0.01067-4.41433,0.01503-6.62149c0.00036-0.18224-0.00463-0.36488-0.01725-0.54664
		c-0.01459-0.21022,0.12425-0.31814,0.27218-0.41084c0.1431-0.08967,0.29103-0.03084,0.42544,0.03827
		c0.0945,0.04859,0.13606,0.14465,0.152,0.24528c0.01287,0.08134,0.01428,0.1651,0.01428,0.24779
		c0.00059,7.00424,0.00062,14.00848-0.00014,21.01272c-0.00001,0.11588-0.0143,0.23174-0.01474,0.34764
		c-0.00077,0.20179,0.06695,0.27491,0.26075,0.2813c0.24855,0.00821,0.49726,0.01648,0.7459,0.0166
		c2.58095,0.00119,5.16189,0.00092,7.74284,0.00032c0.17383-0.00004,0.34768-0.00895,0.52148-0.00765
		c0.06538,0.0005,0.1325,0.01174,0.19558,0.02958c0.15057,0.04257,0.24157,0.14304,0.25407,0.30152
		C36.33661,46.85609,36.3308,46.9469,36.3308,47.05323z"/>
	<path fill="#ADB744" d="M8.71471,10.45156c-0.10675-0.02516-0.15623-0.12-0.16497-0.23232
		c-0.00694-0.08916,0.00311-0.18194,0.02044-0.2702C8.60046,9.7949,8.65011,9.64439,8.67733,9.48983
		C8.73169,9.18106,8.77356,8.8701,8.82673,8.5611c0.0165-0.09593,0.0481-0.19015,0.08135-0.28206
		c0.03373-0.09326,0.09102-0.17937,0.11539-0.27442c0.09488-0.37004,0.23692-0.72322,0.41142-1.05938
		c0.19345-0.37265,0.36833-0.76932,0.73289-1.01711c0.26742-0.18177,0.5493-0.37391,0.89579-0.2705
		c0.23594,0.07042,0.46773,0.17162,0.6826,0.29245c0.54436,0.30611,0.93436,0.75585,1.17869,1.33337
		c0.07034,0.16626,0.05599,0.31654-0.01,0.47892c-0.24871,0.61194-0.70614,1.03634-1.25274,1.3672
		c-0.38853,0.23518-0.79745,0.43844-1.20584,0.63846c-0.32564,0.1595-0.66104,0.30059-0.99814,0.43468
		C9.22082,10.29711,8.97339,10.36605,8.71471,10.45156z"/>
	<path fill="#ADB744" d="M6.83581,5.79072C6.78752,5.77268,6.73912,5.76032,6.69613,5.73766
		c-0.42395-0.22344-0.84843-0.44596-1.27-0.67385C4.70271,4.67274,4.00158,4.24942,3.44615,3.62719
		c-0.19956-0.22356-0.3586-0.47288-0.47262-0.75282C2.86074,2.59744,2.90021,2.34191,3.03835,2.0884
		c0.18624-0.34179,0.4457-0.62398,0.76378-0.83587c0.26657-0.17757,0.566-0.30704,0.85521-0.449
		c0.23885-0.11724,0.47971-0.09861,0.71744,0.01694c0.30505,0.14827,0.54701,0.36068,0.73381,0.6476
		C6.4406,1.97806,6.61015,2.54622,6.72087,3.13357c0.08869,0.47045,0.15901,0.94505,0.21731,1.42029
		C6.97734,4.8731,6.98142,5.19666,7.0009,5.5183C7.00792,5.63419,6.98245,5.73326,6.83581,5.79072z"/>
	<path fill="#ADB744" d="M10.91397,0.01651c0.38177-0.07627,0.67773,0.12473,0.9524,0.33634
		c0.2409,0.1856,0.44747,0.41635,0.66539,0.63103c0.18741,0.18464,0.28121,0.4278,0.3953,0.65757
		c0.06035,0.12155,0.03947,0.24087-0.01623,0.35851c-0.04953,0.10462-0.09946,0.20917-0.14465,0.31568
		c-0.10599,0.24981-0.27187,0.45512-0.47444,0.6305c-0.13118,0.11357-0.26831,0.22142-0.41037,0.321
		c-0.2033,0.1425-0.40424,0.29273-0.62292,0.40791c-0.35106,0.18491-0.71264,0.351-1.07565,0.51179
		c-0.386,0.17098-0.77766,0.3295-1.16958,0.48661C8.92295,4.70965,8.82212,4.73113,8.72506,4.73563
		c-0.11712,0.00544-0.1853-0.06397-0.19346-0.18007C8.52641,4.4819,8.5279,4.40442,8.54507,4.33314
		c0.062-0.25749,0.12256-0.51601,0.20194-0.76839c0.05794-0.18419,0.09935-0.36953,0.09422-0.56019
		C8.83547,2.79032,8.89274,2.59606,8.98031,2.4058C9.07393,2.20239,9.16084,1.99655,9.1771,1.76904
		C9.17828,1.75255,9.17715,1.73441,9.18367,1.72c0.24595-0.54385,0.49273-1.08625,0.96714-1.48238
		C10.37429,0.05101,10.62317-0.03218,10.91397,0.01651z"/>
	<path fill="#333333" d="M44.86906,12.33628c0.22848-0.03063,0.40322,0.04781,0.4719,0.25081
		c0.20894,0.6176,1.28806,0.78952,1.72819,0.41435c0.26137-0.22279,0.42406-0.47985,0.41103-0.83253
		c-0.00551-0.14911-0.00031-0.29861-0.00521-0.44777c-0.00206-0.06245-0.01775-0.12445-0.02557-0.17568
		c-0.10696-0.0462-0.16434,0.00727-0.22296,0.05048c-0.38065,0.28063-0.77802,0.34463-1.23775,0.18075
		c-0.4376-0.156-0.71469-0.44606-0.93737-0.83459c-0.17283-0.30155-0.22996-0.60291-0.20627-0.94846
		c0.02825-0.41214,0.003-0.82845-0.00927-1.24265c-0.0068-0.22941,0.0144-0.44593,0.15117-0.63986
		c0.04268-0.06052,0.08042-0.12659,0.10841-0.19503c0.07801-0.19075,0.22159-0.32405,0.36927-0.45967
		c0.24664-0.22652,0.5458-0.30403,0.86471-0.32281c0.15624-0.0092,0.31511,0.00319,0.4712,0.02032
		c0.16516,0.01814,0.32493,0.05985,0.45039,0.18397c0.02771,0.02742,0.06996,0.04015,0.11773,0.06634
		c0.11201-0.1081,0.22177-0.21401,0.32224-0.31096c0.2689,0.08244,0.29908,0.11624,0.29932,0.34631
		c0.00109,1.0528,0.00047,2.1056,0.00048,3.1584c0,0.52191,0.0018,1.04383-0.00119,1.56573
		c-0.00076,0.13215-0.00591,0.26605-0.02792,0.39595c-0.05127,0.30267-0.26833,0.50505-0.45934,0.72136
		c-0.02698,0.03055-0.06692,0.04927-0.09648,0.07796c-0.36836,0.35763-0.80983,0.40028-1.29077,0.32073
		c-0.41083-0.06796-0.74996-0.24449-1.014-0.5681c-0.06783-0.08314-0.15479-0.15039-0.22635-0.23082
		C44.72117,12.70831,44.71816,12.53711,44.86906,12.33628z M45.40088,9.40956c-0.00508,0.00002-0.01017,0.00004-0.01525,0.00005
		c0,0.26509,0.00229,0.5302-0.00058,0.79526c-0.00346,0.31947,0.07967,0.60367,0.31371,0.83411
		c0.21459,0.21128,0.4761,0.25589,0.76777,0.28445c0.44871,0.04395,0.98172-0.42959,1.03453-0.89351
		c0.02014-0.17695-0.01156-0.34406-0.00975-0.51584c0.0048-0.45615-0.00445-0.91249,0.0038-1.36854
		c0.00529-0.29245-0.13158-0.51688-0.3393-0.68686c-0.39051-0.31954-0.81997-0.36554-1.26659-0.10373
		c-0.30923,0.18128-0.48338,0.44494-0.48767,0.80856C45.39822,8.8455,45.40088,9.12754,45.40088,9.40956z"/>
	<path fill="#333333" d="M27.59417,8.35574c0.14891-0.07772,0.3058-0.03076,0.45995-0.03033
		c0.4067,0.00114,0.81341,0.00041,1.22012,0.00042c0.08999,0,0.17997,0,0.24507,0c0.15145,0.13202,0.17156,0.28334,0.17355,0.43071
		c0.00661,0.48962,0.00612,0.97942,0.00067,1.46906c-0.00204,0.18336-0.05686,0.35317-0.14805,0.51814
		c-0.18396,0.33278-0.4223,0.61229-0.73077,0.8331c-0.03359,0.02405-0.06413,0.05888-0.10162,0.06992
		c-0.25268,0.07444-0.50439,0.15567-0.76172,0.20918c-0.10758,0.02237-0.23138-0.00439-0.34217-0.03168
		c-0.35783-0.08813-0.69426-0.22425-0.94968-0.50492c-0.14987-0.16468-0.30752-0.32528-0.38867-0.5403
		c-0.04971-0.13171-0.11187-0.25986-0.14852-0.39501c-0.03421-0.12616-0.0584-0.2594-0.05898-0.38964
		c-0.00447-0.99536-0.0026-1.99075-0.0009-2.98613c0.00014-0.08247,0.00018-0.16882,0.02293-0.24675
		c0.18511-0.63409,0.54981-1.12612,1.15431-1.41834c0.08737-0.04223,0.1883-0.06868,0.28508-0.07663
		c0.20607-0.01693,0.41362-0.02413,0.62041-0.02177c0.20324,0.00232,0.38064,0.08137,0.55561,0.18886
		c0.38589,0.23707,0.67576,0.55386,0.8818,0.95442c0.09839,0.19127,0.13146,0.39208,0.10912,0.60188
		c-0.01683,0.1581-0.08418,0.23451-0.19809,0.25076c-0.14011,0.01999-0.25993-0.04413-0.30802-0.19254
		c-0.04822-0.14879-0.08206-0.30379-0.10596-0.45857c-0.04845-0.3138-0.23336-0.52505-0.49594-0.67532
		c-0.09124-0.05221-0.19736-0.09246-0.30097-0.1064c-0.31381-0.04222-0.6276-0.03942-0.93744,0.04418
		c-0.31949,0.08621-0.48569,0.33113-0.62458,0.60042c-0.08031,0.1557-0.11797,0.32437-0.11452,0.50374
		c0.00973,0.50589,0.01684,1.01192,0.01674,1.51789c-0.00011,0.53087-0.00981,1.06174-0.01527,1.59262
		c-0.00517,0.5023,0.21401,0.89806,0.65036,1.11956c0.43157,0.21908,0.90023,0.22049,1.32862-0.04118
		c0.39236-0.23967,0.55632-0.62146,0.57594-1.06886c0.00652-0.1486-0.00685-0.2982-0.01361-0.44723
		c-0.00629-0.13875-0.02297-0.27459-0.00057-0.41645c0.03635-0.23027-0.07673-0.34141-0.30859-0.33745
		c-0.3151,0.00537-0.63025,0.01547-0.94532,0.01347C27.55236,8.88637,27.43697,8.67598,27.59417,8.35574z"/>
	<path fill="#333333" d="M38.16185,5.30181c0.1438-0.01623,0.2817-0.04361,0.41991-0.04525
		c0.47265-0.00559,0.94542,0.00044,1.4181-0.00331c0.21413-0.00169,0.40006,0.06547,0.5868,0.16844
		c0.34233,0.18876,0.61256,0.45016,0.83456,0.7645c0.06014,0.08515,0.11309,0.1875,0.13001,0.28854
		c0.03536,0.21118,0.06028,0.42664,0.06173,0.64054c0.00632,0.93709,0.00289,1.87424,0.00243,2.81136
		c-0.00004,0.0828-0.00582,0.16559-0.00615,0.2484c-0.00212,0.53146-0.27525,0.91661-0.65935,1.24869
		c-0.20024,0.17313-0.4203,0.26038-0.68311,0.31412c-0.33004,0.06749-0.65586,0.07218-0.98598,0.07398
		c-0.26477,0.00145-0.52959,0.00303-0.79428-0.00132c-0.06447-0.00106-0.12985-0.0209-0.19254-0.03969
		c-0.10281-0.03082-0.17506-0.09455-0.18673-0.2081c-0.01007-0.09802-0.02468-0.19655-0.02286-0.29458
		c0.00261-0.13993,0.02702-0.2796,0.0272-0.41941c0.00208-1.59229,0.00047-3.18458,0.00241-4.77687
		c0.00024-0.19655-0.04269-0.3933,0.00006-0.58958C38.126,5.42742,38.14267,5.37359,38.16185,5.30181z M38.54634,11.1087
		c0.08242,0.15863,0.08532,0.16461,0.25662,0.17093c0.37224,0.01373,0.74461,0.02421,1.11697,0.03423
		c0.36797,0.0099,0.66272-0.16488,0.89137-0.42279c0.27375-0.30878,0.35818-0.68594,0.34116-1.10698
		c-0.03178-0.7864-0.02249-1.57446-0.02956-2.36184c-0.00014-0.01577,0.01121-0.03135,0.01298-0.04748
		c0.03957-0.36054,0.01474-0.70573-0.18734-1.02623c-0.15757-0.24992-0.35619-0.43383-0.64597-0.50867
		c-0.2781-0.07182-0.56055-0.02988-0.84135-0.03081c-0.20525-0.00068-0.41058,0.00219-0.61573-0.00265
		c-0.09259-0.00219-0.18324-0.01304-0.27829,0.09269c-0.0034,0.04921-0.01491,0.12827-0.01296,0.207
		c0.00327,0.13235,0.02208,0.26447,0.02225,0.39671c0.00177,1.32806,0.0023,2.65612-0.00025,3.98417
		C38.57586,10.68467,38.55771,10.88233,38.54634,11.1087z"/>
	<path fill="#333333" d="M63.35014,21.38576c-0.00509,0.05647-0.01737,0.11271-0.01381,0.16793
		c0.01163,0.18049,0.03482,0.36036,0.04296,0.54094c0.01487,0.33031,0.02346,0.66093,0.03139,0.9915
		c0.00136,0.05676-0.00967,0.11475-0.02173,0.17072c-0.04174,0.19369-0.11388,0.26078-0.27206,0.25882
		c-0.18664-0.0023-0.29736-0.09317-0.32776-0.27294c-0.00683-0.04042-0.01082-0.08392-0.00357-0.12372
		c0.08992-0.49391,0.0293-0.99239,0.04758-1.48838c0.00973-0.26428,0.0278-0.52842,0.03015-0.79274
		c0.00146-0.16459-0.02542-0.32924-0.02906-0.4941c-0.00917-0.4143-0.02087-0.82884-0.01554-1.24308
		c0.00521-0.40503,0.04016-0.80974,0.04256-1.2147c0.00131-0.22182-0.02934-0.44512-0.06197-0.66532
		c-0.01677-0.11317-0.01931-0.21157,0.06499-0.31052c0.13507-0.02555,0.2626-0.0376,0.37975,0.08652
		c0.17446,0.18486,0.21949,0.19155,0.422,0.05056c0.3511-0.24446,0.73761-0.23176,1.11926-0.14073
		c0.17691,0.0422,0.34546,0.16177,0.49264,0.27809c0.39603,0.31299,0.68562,0.68994,0.67766,1.2334
		c-0.00826,0.56389-0.00353,1.128-0.00135,1.692c0.00208,0.54013-0.27673,0.92302-0.6917,1.22266
		c-0.13987,0.10099-0.30121,0.17374-0.45732,0.25002c-0.0647,0.03162-0.14056,0.04788-0.21289,0.05463
		c-0.09869,0.00922-0.19895-0.00018-0.29836,0.00348c-0.21425,0.00788-0.4071-0.03913-0.57904-0.17843
		C63.62269,21.38765,63.52209,21.29198,63.35014,21.38576z M63.38055,19.2177c-0.00224,0-0.00449,0.00001-0.00674,0.00001
		c0,0.32282,0.01006,0.64604-0.00269,0.96835c-0.0141,0.35646,0.22948,0.73577,0.57888,0.82458
		c0.18156,0.04615,0.37659,0.06902,0.56321,0.05906c0.34254-0.01829,0.62373-0.17465,0.78138-0.48937
		c0.1035-0.2066,0.16208-0.43263,0.16157-0.66911c-0.00095-0.43889,0.0159-0.87863-0.00695-1.31632
		c-0.01183-0.22671-0.07547-0.45563-0.14835-0.67258c-0.05239-0.15597-0.17885-0.27358-0.32411-0.3642
		c-0.4077-0.25433-1.10722-0.19085-1.46247,0.25728c-0.08607,0.10857-0.1389,0.21606-0.13602,0.35895
		C63.38528,18.52201,63.38055,18.8699,63.38055,19.2177z"/>
	<path fill="#333333" d="M25.74642,19.66792c0.06076-0.0126,0.11594-0.0313,0.17199-0.03442
		c0.24537-0.01362,0.36806,0.09596,0.38955,0.34218c0.00144,0.01648,0.00266,0.03345,0.00046,0.04971
		c-0.07544,0.55591,0.4483,1.00793,0.96804,1.04911c0.28222,0.02236,0.57,0.03031,0.83636-0.06084
		c0.36489-0.12486,0.61941-0.37554,0.68657-0.77686c0.05028-0.30047-0.00304-0.59565-0.06574-0.88641
		c-0.02143-0.09942-0.08801-0.20242-0.1624-0.27437c-0.15995-0.15469-0.32626-0.30917-0.51249-0.42863
		c-0.2077-0.13323-0.44161-0.22516-0.66192-0.33929c-0.3891-0.20158-0.78536-0.39105-1.118-0.68603
		c-0.20545-0.18218-0.30501-0.42747-0.42814-0.66218c-0.0821-0.15648-0.09571-0.31411-0.08748-0.48097
		c0.00162-0.03295,0.00215-0.06849,0.01464-0.09799c0.1879-0.44415,0.36901-0.89321,0.84423-1.12258
		c0.10419-0.05029,0.1993-0.11945,0.30375-0.16905c0.09612-0.04564,0.19723-0.10136,0.29958-0.10954
		c0.32956-0.02631,0.65184-0.03154,0.96828,0.12886c0.27873,0.14129,0.53367,0.29926,0.73666,0.53549
		c0.0642,0.07471,0.12688,0.15495,0.16999,0.24262c0.06922,0.14077,0.12639,0.28811,0.17953,0.43595
		c0.04078,0.11347,0.04832,0.23598-0.04475,0.32698c-0.09999,0.09775-0.22935,0.13019-0.36865,0.09824
		c-0.09255-0.02123-0.13911-0.08662-0.14652-0.17794c-0.00536-0.06597-0.0048-0.13264-0.00327-0.19891
		c0.00452-0.19492-0.07722-0.3474-0.21114-0.48575c-0.30904-0.31927-0.69288-0.39709-1.11389-0.36375
		c-0.08202,0.0065-0.16377,0.02408-0.24408,0.04311c-0.66531,0.15766-0.97757,0.76935-0.75657,1.4223
		c0.04997,0.14765,0.17639,0.28589,0.30088,0.38785c0.17105,0.14008,0.36874,0.25075,0.56417,0.35721
		c0.2755,0.1501,0.56343,0.27742,0.83859,0.42808c0.29867,0.16355,0.57797,0.35763,0.80635,0.61463
		c0.36161,0.40694,0.56405,0.87116,0.49232,1.42723c-0.01578,0.12229-0.04056,0.24343-0.12932,0.34255
		c-0.04902,0.05474-0.08673,0.12121-0.1219,0.1865c-0.17102,0.31748-0.41686,0.5508-0.75456,0.68413
		c-0.04611,0.0182-0.09332,0.03764-0.13377,0.06557c-0.34609,0.23894-0.73221,0.15178-1.10853,0.13475
		c-0.05376-0.00243-0.10693-0.04179-0.15832-0.06808c-0.14747-0.07545-0.30353-0.13918-0.43811-0.2334
		c-0.14744-0.10322-0.29828-0.21737-0.40567-0.35866c-0.20913-0.27514-0.40722-0.56141-0.45075-0.92408
		C25.67787,19.91028,25.68548,19.80296,25.74642,19.66792z"/>
	<path fill="#333333" d="M57.15352,17.15018c0.06796-0.04213,0.14093-0.09367,0.21949-0.13444
		c0.09394-0.04877,0.18885-0.10992,0.29004-0.12777c0.27743-0.04895,0.564-0.07202,0.83511,0.00972
		c0.31445,0.09481,0.56626,0.30113,0.79103,0.53948c0.25255,0.26781,0.35656,0.58852,0.35617,0.95038
		c-0.00078,0.70454-0.00224,1.40908,0.00122,2.1136c0.00085,0.173,0.0299,0.34608,0.02701,0.51881
		c-0.00246,0.14727-0.01806,0.29763-0.05381,0.4401c-0.03619,0.14415-0.13754,0.18929-0.28941,0.16433
		c-0.13969-0.02296-0.194-0.08065-0.19721-0.23895c-0.00301-0.14879,0.01309-0.29788,0.01347-0.44686
		c0.00168-0.66348-0.00088-1.32696,0.00209-1.99043c0.00059-0.13155,0.01381-0.26362,0.0296-0.39444
		c0.07901-0.65477-0.54532-1.29503-1.16613-1.12039c-0.04659,0.01311-0.09896,0.00461-0.14845,0.00865
		c-0.34611,0.02828-0.57804,0.23247-0.74768,0.51128c-0.10415,0.17114-0.06254,0.37031-0.04972,0.55976
		c0.00557,0.08219,0.02093,0.16412,0.02109,0.2462c0.00161,0.82105,0.00239,1.64212-0.00089,2.46316
		c-0.0004,0.09737-0.01989,0.19621-0.04269,0.29146c-0.01968,0.08229-0.08968,0.1153-0.16981,0.12177
		c-0.18253,0.01473-0.34283-0.10927-0.37299-0.29131c-0.00941-0.05681-0.00978-0.1156-0.00949-0.17345
		c0.00492-0.96173,0.00914-1.92346,0.01749-2.88516c0.0015-0.17307,0.03239-0.34617,0.02977-0.51896
		c-0.01171-0.76987-0.03069-1.53964-0.04687-2.30945c-0.00087-0.04145-0.00217-0.08302,0.00004-0.12437
		c0.01543-0.28823,0.13752-0.38417,0.44321-0.34463c0.11298,0.10702,0.15494,0.24327,0.15393,0.39995
		c-0.0024,0.37319,0.00443,0.74652-0.00357,1.11956c-0.00281,0.13066-0.02897,0.26294-0.06123,0.39023
		C56.99438,17.01612,57.0295,17.08895,57.15352,17.15018z"/>
	<path fill="#333333" d="M45.32055,18.03879c-0.07608-0.22128-0.02264-0.40132,0.14251-0.54637
		c0.16759-0.1472,0.33812-0.29155,0.51391-0.42875c0.13926-0.1087,0.3034-0.17195,0.47901-0.18864
		c0.34807-0.03308,0.67659-0.02884,1.00064,0.17595c0.28654,0.18108,0.48726,0.42201,0.66537,0.68744
		c0.14116,0.21037,0.16592,0.4696,0.13866,0.71763c-0.03183,0.28963-0.03473,0.57576,0.00142,0.86362
		c0.00412,0.03278,0.01075,0.0659,0.00945,0.09859c-0.01411,0.35519-0.02985,0.71031-0.04447,1.06548
		c-0.00273,0.06625-0.00095,0.1327-0.00404,0.19892c-0.00519,0.11101,0.04672,0.19061,0.13557,0.24885
		c0.04836,0.0317,0.0996,0.05915,0.15036,0.08701c0.28765,0.15789,0.31728,0.22437,0.24828,0.5605
		c-0.19229,0.12311-0.42334,0.09743-0.60131-0.07115c-0.05994-0.05678-0.10738-0.12724-0.16954-0.18105
		c-0.06622-0.05731-0.1431-0.1023-0.20653-0.14654c-0.19614,0.12607-0.37032,0.23527-0.54152,0.34897
		c-0.12197,0.081-0.25317,0.11911-0.39926,0.11151c-0.06618-0.00344-0.13268-0.00061-0.19904-0.00065
		c-0.21029-0.00015-0.40591-0.03821-0.59089-0.1543c-0.19596-0.12297-0.4151-0.21166-0.56451-0.39792
		c-0.09258-0.11541-0.1797-0.23576-0.2619-0.35881c-0.17068-0.2555-0.14901-0.53759-0.07877-0.81327
		c0.02924-0.11481,0.10996-0.22134,0.18406-0.31891c0.17754-0.23378,0.39093-0.42593,0.67363-0.52921
		c0.08496-0.03104,0.16372-0.07939,0.24908-0.10895c0.13161-0.04558,0.26443-0.09154,0.40042-0.11962
		c0.18559-0.03833,0.37863-0.04502,0.56083-0.09383c0.1328-0.03558,0.26127-0.10512,0.37717-0.18152
		c0.14773-0.09736,0.19707-0.27785,0.12376-0.44087c-0.06763-0.15039-0.14653-0.29855-0.24168-0.43263
		c-0.05425-0.07645-0.14283-0.14136-0.22995-0.1794c-0.35363-0.15439-0.71054-0.10635-1.06148,0.01626
		c-0.11262,0.03934-0.18874,0.12789-0.25048,0.2318c-0.05011,0.08434-0.10884,0.16651-0.17728,0.23638
		C45.60691,18.14347,45.54436,18.14709,45.32055,18.03879z M47.75945,19.81995c-0.006-0.00057-0.012-0.00115-0.01801-0.00173
		c0-0.12358-0.00036-0.24716,0.00009-0.37074c0.00085-0.23363-0.07638-0.29076-0.30795-0.2363
		c-0.33701,0.07924-0.67352,0.16181-1.01308,0.22848c-0.24637,0.04837-0.44342,0.17888-0.62247,0.33907
		c-0.0559,0.05001-0.08253,0.13981-0.10641,0.21643c-0.02169,0.06956-0.02993,0.14603-0.02931,0.21933
		c0.00217,0.25722,0.07359,0.48318,0.27998,0.6595c0.15527,0.13264,0.34066,0.16199,0.52736,0.18949
		c0.64135,0.09449,1.06789-0.19193,1.22869-0.70726C47.75098,20.18753,47.74087,19.99926,47.75945,19.81995z"/>
	<path fill="#333333" d="M56.19566,11.41739c-0.04928,0.03151-0.11226,0.05186-0.14302,0.09513
		c-0.0991,0.13941-0.22838,0.20694-0.39711,0.21979c-0.06376,0.00486-0.12688,0.03639-0.18737,0.06251
		c-0.21472,0.09272-0.4286,0.09421-0.65449,0.03195c-0.39373-0.10853-0.72315-0.2941-0.99076-0.61799
		c-0.301-0.36432-0.35867-1.18634,0.06274-1.54812c0.34571-0.29679,0.70807-0.53516,1.17772-0.5779
		c0.28947-0.02634,0.56984-0.10479,0.83377-0.2308c0.22893-0.1093,0.25146-0.17944,0.25082-0.4277
		c-0.00113-0.43403-0.48542-0.80685-0.83022-0.82521c-0.2657-0.01415-0.52903,0.01157-0.75617,0.18134
		c-0.12821,0.09582-0.2453,0.19413-0.28721,0.3597c-0.02827,0.11169-0.09379,0.19497-0.22208,0.20053
		c-0.11827,0.00513-0.24584,0.00644-0.31359-0.10625c-0.07499-0.12473-0.04885-0.26037,0.03775-0.37304
		c0.35538-0.46239,0.79598-0.76787,1.40969-0.7288c0.18121,0.01154,0.36157,0.04036,0.54139,0.06745
		c0.05609,0.00845,0.11589,0.0271,0.1625,0.05827c0.35911,0.24012,0.65036,0.54005,0.7968,0.95637
		c0.04653,0.13227,0.06744,0.26805,0.03709,0.41415c-0.05784,0.27838-0.03148,0.56022-0.0001,0.84044
		c0.00367,0.03275,0.01546,0.06534,0.01453,0.09775c-0.00843,0.29506-0.01837,0.59008-0.02887,0.88508
		c-0.00531,0.14901-0.016,0.2979-0.01828,0.44694c-0.00267,0.17512,0.07793,0.30063,0.23972,0.37179
		c0.04545,0.01999,0.0914,0.03897,0.13612,0.06048c0.16385,0.07877,0.21777,0.19258,0.15977,0.33486
		c-0.06307,0.15474-0.23507,0.24634-0.38352,0.18891c-0.13905-0.05379-0.26861-0.12788-0.36082-0.25379
		C56.41769,11.5128,56.33932,11.43942,56.19566,11.41739z M56.15901,10.11086c-0.0056,0-0.01119,0.00001-0.01679,0.00001
		c0-0.1157,0.00508-0.23171-0.00184-0.347c-0.00438-0.07291-0.01688-0.14854-0.04313-0.2162
		c-0.04138-0.10661-0.10915-0.14746-0.21585-0.11105c-0.19899,0.06789-0.40229,0.08267-0.60896,0.09533
		c-0.08818,0.0054-0.17525,0.04414-0.2608,0.07362c-0.15602,0.05377-0.31291,0.1063-0.46469,0.17055
		c-0.08129,0.03441-0.1762,0.07531-0.22431,0.14243c-0.16665,0.23248-0.28033,0.47474-0.17752,0.78387
		c0.10004,0.30078,0.26492,0.51591,0.5806,0.57652c0.16829,0.03231,0.34446,0.02197,0.51666,0.03596
		c0.17591,0.01428,0.33106-0.04634,0.46196-0.14965c0.28201-0.22257,0.50194-0.48411,0.45561-0.88071
		C56.15326,10.22739,56.15901,10.16879,56.15901,10.11086z"/>
	<path fill="#333333" d="M34.54125,15.06608c0.26988-0.16703,0.47753-0.10535,0.54599,0.15267
		c0.03319,0.12507,0.03165,0.26125,0.03279,0.39252c0.00235,0.27211,0.00041,0.54445-0.00872,0.81639
		c-0.00439,0.13066-0.02697,0.26093-0.04544,0.39079c-0.01125,0.07916-0.03032,0.15722-0.04526,0.2326
		c0.13197,0.08614,0.24762,0.07579,0.34021-0.0057c0.22058-0.19416,0.48255-0.18376,0.74999-0.18992
		c0.27681-0.00637,0.50864,0.07581,0.7438,0.22324c0.34592,0.21685,0.56629,0.53113,0.75944,0.86864
		c0.06097,0.10654,0.06204,0.25585,0.06421,0.38602c0.00731,0.43965,0.0028,0.87949,0.00281,1.31926
		c0.00001,0.41488,0.00014,0.82976-0.00004,1.24463c-0.00007,0.16356,0.00925,0.32793-0.00396,0.49045
		c-0.01549,0.19038-0.08806,0.24343-0.27734,0.23564c-0.21007-0.00865-0.31293-0.08835-0.31303-0.27067
		c-0.00012-0.21455,0.02692-0.42905,0.02861-0.64368c0.00443-0.5642,0.00517-1.12849-0.00003-1.69267
		c-0.00267-0.28929-0.01678-0.57868-0.03382-0.86755c-0.0172-0.29169-0.16994-0.49846-0.43232-0.61802
		c-0.46275-0.21086-0.90002-0.15408-1.30869,0.14352c-0.17454,0.1271-0.24818,0.30499-0.24868,0.51524
		c-0.00138,0.57253-0.00572,1.14514,0.00283,1.71754c0.00244,0.16382,0.00647,0.32651,0.00063,0.49068
		c-0.00674,0.18907,0.01867,0.37913,0.02608,0.56892c0.00452,0.11597,0.01031,0.23305-0.00013,0.34822
		c-0.0206,0.22729-0.13987,0.32357-0.36396,0.30837c-0.16136-0.01094-0.22735-0.06855-0.22744-0.23073
		c-0.00009-0.16506,0.01862-0.33016,0.03033-0.49516c0.00291-0.041,0.01885-0.08248,0.01485-0.12234
		c-0.05557-0.55384,0.03279-1.10577,0.01844-1.6596c-0.0178-0.68732-0.0136-1.37526-0.01553-2.06294
		c-0.00058-0.20709,0.01926-0.41446,0.01355-0.62126c-0.01026-0.37206-0.03354-0.74374-0.04958-1.11566
		C34.53799,15.22674,34.54125,15.13765,34.54125,15.06608z"/>
	<path fill="#333333" d="M34.07601,10.07241c0.09618,0,0.17809-0.00791,0.25793,0.00155
		c0.19981,0.02369,0.32187,0.19794,0.23176,0.37597c-0.15981,0.31574-0.30677,0.64522-0.58322,0.88588
		c-0.0936,0.08148-0.18962,0.1602-0.28555,0.23896c-0.03183,0.02613-0.06343,0.05915-0.10083,0.07088
		c-0.44641,0.13995-0.87383,0.31632-1.368,0.11016c-0.45305-0.18902-0.77662-0.48836-1.03288-0.88537
		c-0.04923-0.07626-0.08247-0.16281-0.1312-0.23944c-0.07838-0.12323-0.10899-0.25438-0.10793-0.40039
		c0.00395-0.53909,0.00155-1.07824,0.00155-1.61736c0-0.58793,0.00207-1.17588-0.00154-1.76379
		c-0.00084-0.13616,0.02676-0.25938,0.08532-0.38238c0.19615-0.41199,0.46222-0.75927,0.85268-1.00962
		c0.19523-0.12518,0.39993-0.19497,0.62809-0.20228c0.12429-0.00398,0.24948,0.00751,0.37308-0.0025
		c0.26047-0.02108,0.48705,0.06071,0.70234,0.1987c0.33373,0.21391,0.61222,0.47726,0.79269,0.83614
		c0.04824,0.09593,0.11294,0.18365,0.16031,0.27995c0.07308,0.14857,0.05413,0.2823-0.04124,0.36429
		c-0.08368,0.07193-0.30863,0.09164-0.40194,0.03089C34.02408,6.9084,33.99713,6.8219,33.9867,6.72804
		c-0.02358-0.21218-0.11805-0.38903-0.24664-0.55892c-0.18467-0.24398-0.42785-0.36108-0.72232-0.37988
		c-0.26503-0.01692-0.52995-0.00812-0.78968,0.06003c-0.33614,0.08821-0.52307,0.33097-0.6387,0.63522
		c-0.03995,0.10513-0.04854,0.22719-0.04888,0.34159c-0.00338,1.14423-0.00471,2.28849-0.00082,3.43272
		c0.00169,0.49922,0.34819,0.946,0.83568,1.02816c0.43632,0.07354,0.8803,0.08658,1.23779-0.25952
		c0.19464-0.18843,0.33662-0.40586,0.38355-0.6792C34.01157,10.26149,34.04503,10.17793,34.07601,10.07241z"/>
	<path fill="#333333" d="M38.66078,19.24094c0.00003-0.34011,0.00329-0.68025-0.00134-1.0203
		c-0.00236-0.1733,0.04633-0.32268,0.14845-0.46311c0.20539-0.28244,0.41615-0.55156,0.73199-0.72856
		c0.1796-0.10064,0.35848-0.1649,0.56098-0.16952c0.09949-0.00227,0.19928-0.00415,0.29855,0.00104
		c0.06524,0.00341,0.13514,0.00725,0.19376,0.03236c0.33764,0.14464,0.65293,0.32474,0.8745,0.62942
		c0.09235,0.12699,0.18264,0.2587,0.24988,0.3997c0.05184,0.10871,0.09145,0.23493,0.09305,0.35395
		c0.0088,0.65521,0.00543,1.31059,0.00253,1.96591c-0.00032,0.0724-0.00788,0.15292-0.03969,0.21569
		c-0.19646,0.38763-0.42155,0.75336-0.8271,0.96234c-0.01474,0.00759-0.03158,0.0126-0.04401,0.02294
		c-0.29839,0.24806-0.64716,0.21382-0.99557,0.17604c-0.04832-0.00524-0.09999-0.01992-0.14109-0.045
		c-0.28273-0.17254-0.56261-0.34454-0.76907-0.61794c-0.39685-0.52554-0.32921-0.39351-0.33543-0.99326
		C38.65867,19.72208,38.66076,19.4815,38.66078,19.24094z M41.25051,19.25971c0-0.31501,0.00479-0.63011-0.00115-0.94501
		c-0.00833-0.44104-0.28008-0.76598-0.70696-0.87299c-0.26748-0.06705-0.52801-0.03259-0.78008,0.0506
		c-0.33912,0.11194-0.59389,0.53314-0.58426,0.9284c0.01028,0.42151,0.0213,0.843,0.02947,1.26455
		c0.00192,0.09908-0.00057,0.19897-0.01088,0.29745c-0.03913,0.37384,0.07972,0.68867,0.37564,0.91644
		c0.25086,0.19308,0.55636,0.20547,0.85526,0.16361c0.50095-0.07016,0.82191-0.45403,0.82295-0.9575
		C41.2511,19.82342,41.25062,19.54156,41.25051,19.25971z"/>
	<path fill="#333333" d="M53.77765,16.86513c0.28418-0.03667,0.52828,0.04415,0.75814,0.19684
		c0.15133,0.10052,0.31768,0.1781,0.47401,0.27148c0.10393,0.06209,0.17395,0.15275,0.18435,0.27906
		c0.01021,0.12404-0.05056,0.21196-0.17235,0.23418c-0.12756,0.02327-0.25397,0.01028-0.3437-0.09465
		c-0.18518-0.21652-0.43181-0.3107-0.70086-0.33037c-0.31495-0.02303-0.63226,0.01094-0.91897,0.15217
		c-0.32792,0.16152-0.34497,0.75069-0.02754,0.95647c0.2271,0.14722,0.45847,0.29446,0.75522,0.27767
		c0.10993-0.00622,0.22609,0.04192,0.33461,0.0792c0.18743,0.06438,0.3796,0.12317,0.55478,0.21342
		c0.53768,0.27699,0.94305,0.82562,0.70392,1.54441c-0.10292,0.30939-0.3311,0.55275-0.62249,0.71752
		c-0.14402,0.08144-0.29319,0.15559-0.44574,0.21939c-0.08178,0.03421-0.17527,0.0522-0.26419,0.05502
		c-0.157,0.00498-0.31473-0.00428-0.47179-0.01367c-0.0652-0.0039-0.13377-0.01299-0.19346-0.03757
		c-0.46529-0.19158-0.88287-0.45391-1.19972-0.85274c-0.05323-0.067-0.08691-0.15883-0.10242-0.24413
		c-0.01957-0.10756,0.03774-0.19919,0.13787-0.24051c0.09618-0.03968,0.19744-0.03118,0.27423,0.05424
		c0.04411,0.04907,0.08163,0.104,0.12445,0.15431c0.09109,0.10703,0.17664,0.22004,0.27714,0.31754
		c0.2203,0.21371,0.50326,0.28446,0.79649,0.29662c0.18809,0.0078,0.3828-0.00625,0.56604-0.0479
		c0.38914-0.08847,0.60137-0.36786,0.60897-0.76924c0.00954-0.50397-0.2708-0.70028-0.62891-0.80608
		c-0.26931-0.07956-0.54462-0.13873-0.81715-0.20744c-0.42375-0.10685-0.7824-0.31148-1.03112-0.68331
		c-0.13514-0.20204-0.17199-0.42804-0.15944-0.66352c0.00336-0.06311,0.02592-0.13443,0.06297-0.18487
		c0.14072-0.19157,0.25546-0.40927,0.48342-0.52062c0.02213-0.01081,0.04253-0.0261,0.06182-0.04167
		C53.11376,16.92249,53.42878,16.82297,53.77765,16.86513z"/>
	<path fill="#333333" d="M32.88079,19.92117c0.05845-0.02285,0.07326-0.03191,0.08908-0.03435
		c0.36479-0.05618,0.50082,0.16509,0.38546,0.49643c-0.12276,0.35263-0.28455,0.67445-0.59603,0.89052
		c-0.1891,0.13117-0.38964,0.26591-0.60555,0.33303c-0.24236,0.07533-0.51584,0.08293-0.75374-0.03453
		c-0.27283-0.13471-0.53308-0.28846-0.75197-0.51694c-0.26443-0.276-0.39086-0.59955-0.399-0.96242
		c-0.0132-0.5882-0.0071-1.17765,0.01598-1.76559c0.01818-0.4631,0.24381-0.82784,0.6024-1.12265
		c0.34863-0.28661,0.74264-0.38696,1.18093-0.34306c0.08871,0.00889,0.18296,0.03001,0.2605,0.07178
		c0.4895,0.26368,0.87239,0.62841,1.05039,1.1709c0.03,0.09143,0.04272,0.19718,0.03046,0.29205
		c-0.02633,0.2037-0.26125,0.31379-0.44136,0.21391c-0.0399-0.02213-0.07647-0.06697-0.09354-0.10974
		c-0.0272-0.06816-0.05256-0.14366-0.05121-0.21554c0.00917-0.48783-0.46053-0.93769-1.05085-0.87535
		c-0.13066,0.0138-0.26078,0.04497-0.38725,0.08159c-0.0775,0.02244-0.1596,0.05687-0.21896,0.10931
		c-0.28089,0.24817-0.44019,0.541-0.38739,0.93962c0.06309,0.47633,0.06401,0.95892-0.00091,1.43555
		c-0.05801,0.42587,0.1375,0.73135,0.45118,0.95639c0.22542,0.16172,0.51429,0.17354,0.79072,0.12802
		c0.45787-0.0754,0.71186-0.33113,0.80181-0.78985C32.82539,20.15057,32.85553,20.03218,32.88079,19.92117z"/>
	<path fill="#333333" d="M52.08221,7.63897c-0.00981,0.13211-0.02298,0.22846-0.02318,0.32484
		c-0.00167,0.7959-0.00034,1.5918-0.00179,2.3877c-0.00016,0.09048-0.00745,0.18153-0.01911,0.27131
		c-0.04004,0.30817,0.22498,0.63923,0.53484,0.65609c0.13253,0.00721,0.26657-0.00393,0.38425,0.11229
		c0.00383,0.05313,0.01597,0.11872,0.01189,0.18327c-0.01393,0.22017-0.18801,0.36371-0.39212,0.28926
		c-0.36027-0.13141-0.70525-0.29762-0.87335-0.68244c-0.04636-0.10611-0.10229-0.20839-0.1432-0.31645
		c-0.05846-0.15444-0.11575-0.31064-0.05554-0.48133c0.01313-0.0372,0.00563-0.08217,0.00533-0.12356
		c-0.00462-0.64614-0.01049-1.29227-0.01377-1.93842c-0.00063-0.12373,0.01711-0.2479,0.01148-0.37118
		c-0.00946-0.20718-0.06759-0.27375-0.26748-0.33328c-0.05533-0.01648-0.11401-0.02259-0.16827-0.04164
		c-0.14333-0.05032-0.18206-0.11945-0.17813-0.31169c0.13952-0.1776,0.39352-0.09712,0.58027-0.25148
		c0.00962-0.06374,0.03529-0.1517,0.03392-0.23923c-0.00543-0.3471-0.01951-0.69406-0.02985-1.04109
		c-0.00172-0.05799-0.00186-0.11608-0.0008-0.17409c0.0043-0.2359,0.15469-0.35813,0.38837-0.3155
		c0.12542,0.02288,0.1807,0.11564,0.19813,0.2266c0.0153,0.09733,0.01109,0.19829,0.00976,0.29758
		c-0.00365,0.27329-0.00938,0.54655-0.01635,0.81978c-0.00211,0.08236-0.00798,0.1649-0.01738,0.24675
		c-0.02168,0.18881,0.07856,0.29593,0.27,0.28556c0.1151-0.00624,0.23159-0.02473,0.3451-0.01365
		c0.15608,0.01524,0.24126,0.09981,0.26173,0.22378c0.03003,0.18183-0.04599,0.29052-0.23057,0.31034
		c-0.09814,0.01053-0.19847,0.00033-0.29782-0.00005C52.29933,7.63869,52.21009,7.63897,52.08221,7.63897z"/>
	<path fill="#333333" d="M58.14788,5.35569c0.04176-0.02798,0.06693-0.05075,0.09641-0.06369
		c0.30259-0.13286,0.49162-0.02037,0.50195,0.30546c0.00498,0.157-0.0134,0.31459-0.01356,0.47192
		c-0.00126,1.26947,0.00066,2.53895-0.00213,3.80841c-0.00043,0.19797-0.01835,0.39598-0.03079,0.59382
		c-0.01614,0.25648,0.00537,0.49894,0.2278,0.67474c0.09246,0.07308,0.18803,0.13669,0.31287,0.13453
		c0.03305-0.00057,0.06674,0.0005,0.09918,0.00621c0.2543,0.04477,0.30029,0.15556,0.25059,0.38435
		c-0.0403,0.18557-0.21783,0.2688-0.4132,0.18193c-0.15742-0.06999-0.30546-0.16465-0.44933-0.26083
		c-0.29002-0.1939-0.42973-0.49818-0.55133-0.8069c-0.04067-0.10327-0.03734-0.22738-0.03841-0.34211
		c-0.00379-0.40591-0.00188-0.81188,0.00027-1.21782c0.00075-0.14072,0.01224-0.28139,0.01243-0.4221
		c0.00121-0.8712,0.00171-1.74242-0.00015-2.61362C58.15,5.96629,58.13931,5.74262,58.13542,5.5189
		C58.13457,5.46985,58.14265,5.42063,58.14788,5.35569z"/>
	<path fill="#333333" d="M43.15731,14.99358c0.30014-0.05217,0.39034-0.00641,0.45199,0.27133
		c0.03161,0.1424,0.02066,0.29468,0.02411,0.44261c0.00093,0.0401-0.02921,0.08304-0.0224,0.12056
		c0.08546,0.47081-0.03688,0.94129-0.00135,1.41082c0.06638,0.87737,0.01508,1.75559,0.0294,2.63327
		c0.00255,0.15613-0.02686,0.3126-0.02855,0.46904c-0.00097,0.08925,0.01713,0.18056,0.03899,0.26785
		c0.06604,0.26365,0.23,0.41393,0.5101,0.42161c0.02467,0.00067,0.04922,0.00657,0.07378,0.01039
		c0.33184,0.05156,0.42546,0.26619,0.24574,0.57805c-0.25167,0.05979-0.48362,0.02042-0.69423-0.14671
		c-0.17425-0.13827-0.3542-0.26125-0.49157-0.44828c-0.20076-0.27332-0.25027-0.56897-0.22618-0.89099
		c0.00798-0.10676,0.02498-0.2134,0.02513-0.32012c0.00177-1.28514,0.0026-2.57029-0.00034-3.85543
		c-0.00047-0.20613-0.02253-0.41213-0.03087-0.61835C43.05597,15.21338,43.07604,15.09256,43.15731,14.99358z"/>
	<path fill="#333333" d="M49.6179,17.00986c0.12101-0.12568,0.24115-0.12418,0.34855-0.07862
		c0.16676,0.07074,0.30936,0.03326,0.47502-0.01702c0.33262-0.10096,0.66858-0.11419,0.96244,0.13503
		c0.06175,0.05237,0.14496,0.07889,0.21647,0.12042c0.171,0.09932,0.24545,0.27933,0.1952,0.46641
		c-0.03199,0.11908-0.12675,0.18152-0.24593,0.14385c-0.06845-0.02164-0.12899-0.07038-0.1908-0.11045
		c-0.09007-0.0584-0.17281-0.1304-0.26787-0.1784c-0.39032-0.19708-0.73623-0.00314-0.94267,0.29799
		c-0.04186,0.06106-0.04235,0.15841-0.04235,0.23904c0.00011,1.10281,0.00367,2.20563,0.00636,3.30844
		c0.00002,0.00829,0.00012,0.01659-0.00007,0.02488c-0.00441,0.18788-0.03916,0.2508-0.15097,0.27339
		c-0.14072,0.02844-0.2999-0.03812-0.35249-0.17062c-0.03532-0.08898-0.06142-0.19538-0.04803-0.28765
		c0.07664-0.52792,0.01483-1.05919,0.04967-1.58809c0.01736-0.26353-0.0105-0.5298-0.0118-0.79486
		c-0.00253-0.51348-0.00074-1.02698-0.00074-1.54048C49.61789,17.16352,49.6179,17.07389,49.6179,17.00986z"/>
	<path fill="#ADB744" d="M6.93259,11.89053c-0.09717-0.01014-0.17002,0.00272-0.21805-0.02597
		c-0.4181-0.24971-0.83771-0.49788-1.2436-0.76654c-0.14857-0.09834-0.26635-0.24605-0.38963-0.37914
		c-0.25614-0.27652-0.23669-0.72359,0.09615-0.95626C5.24485,9.7155,5.3044,9.6566,5.3649,9.60027
		c0.20332-0.18929,0.44682-0.24034,0.71375-0.20807c0.13173,0.01593,0.22132,0.09973,0.30711,0.19379
		c0.28309,0.31038,0.42861,0.68568,0.49798,1.0897c0.05014,0.29205,0.07413,0.58917,0.0969,0.88502
		C6.98793,11.65539,6.95403,11.75324,6.93259,11.89053z"/>
	<path fill="#333333" d="M60.92044,21.55827c-0.1067-0.14859-0.08006-0.29261-0.07581-0.43154
		c0.00604-0.1975,0.02534-0.39469,0.02831-0.59218c0.00848-0.56264,0.03354-1.12627,0.01035-1.68779
		c-0.02148-0.5202,0.05384-1.04268-0.03999-1.56055c-0.00729-0.0402-0.00381-0.0828-0.00197-0.12413
		c0.00879-0.19806,0.08185-0.28317,0.2572-0.30175c0.19334-0.02049,0.32721,0.06954,0.3631,0.25485
		c0.014,0.07224,0.00927,0.14854,0.0093,0.22299c0.00046,1.1937,0.00024,2.38739,0.00043,3.58109
		c0.00002,0.14041,0.01133,0.28161,0.00014,0.42106c-0.01955,0.24357-0.12341,0.31944-0.36232,0.27628
		C61.04506,21.60501,60.98367,21.57825,60.92044,21.55827z"/>
	<path fill="#333333" d="M43.60775,7.57756c-0.07782,0.56606-0.04222,1.12991-0.04835,1.69284
		c-0.00605,0.55576-0.0024,1.11163-0.00023,1.66745c0.00035,0.09029,0.02372,0.18076,0.02123,0.27072
		c-0.00407,0.14736-0.00541,0.29772-0.03679,0.44046c-0.02417,0.10998-0.11541,0.17569-0.2401,0.17953
		c-0.12481,0.00385-0.21546-0.05312-0.24877-0.16552c-0.02966-0.10006-0.03492-0.20965-0.03609-0.31519
		c-0.00118-0.10666,0.02359-0.2135,0.02378-0.32029c0.00195-1.07846,0.00185-2.15692,0.00007-3.23538
		c-0.00016-0.09842-0.01803-0.1967-0.0239-0.29528c-0.00342-0.05741-0.00747-0.1168,0.00304-0.17261
		c0.02542-0.13497,0.09726-0.21006,0.2005-0.22385c0.11398-0.01522,0.26561,0.05787,0.30778,0.16775
		C43.56774,7.36677,43.5827,7.4741,43.60775,7.57756z"/>
	<path fill="#333333" d="M49.93306,9.45144c0,0.62082,0.00024,1.24162-0.00027,1.86242
		c-0.00007,0.091,0.00492,0.18321-0.00761,0.27274c-0.02185,0.15613-0.15484,0.28103-0.27567,0.27254
		c-0.12231-0.00859-0.24823-0.1456-0.26238-0.28973c-0.00483-0.04923-0.00486-0.09964-0.00055-0.14894
		c0.10196-1.16506,0.0268-2.33253,0.04602-3.4987c0.00229-0.139-0.02894-0.27845-0.043-0.41786
		c-0.00414-0.04107-0.00471-0.08276-0.00348-0.12406c0.00523-0.17531,0.07762-0.26906,0.21559-0.28155
		c0.16035-0.01451,0.29527,0.08293,0.32264,0.24295c0.01244,0.07268,0.00835,0.14852,0.00841,0.22293
		C49.9333,8.19326,49.93307,8.82234,49.93306,9.45144z"/>
	<path fill="#333333" d="M60.91723,15.03373c0.06718-0.0218,0.12827-0.0499,0.19227-0.06069
		c0.14305-0.02412,0.26949,0.04188,0.32358,0.17245c0.07534,0.18188,0.07337,0.37447,0.03759,0.56254
		c-0.02584,0.1358-0.14809,0.20335-0.30562,0.19829c-0.16858-0.00542-0.28607-0.08515-0.32333-0.21942
		C60.79818,15.52998,60.82854,15.23685,60.91723,15.03373z"/>
	<path fill="#333333" d="M43.60883,5.68185c-0.02632,0.10497-0.04381,0.21088-0.08009,0.30991
		c-0.0412,0.11246-0.13262,0.16328-0.254,0.15749c-0.11055-0.00527-0.18503-0.05733-0.2263-0.1613
		c-0.07299-0.1839-0.07362-0.37203-0.02647-0.55949c0.03361-0.13362,0.09905-0.17994,0.22699-0.18906
		c0.12701-0.00905,0.23418,0.03092,0.28432,0.15215C43.57031,5.48107,43.58345,5.58047,43.60883,5.68185z"/>
	<path fill="#333333" d="M49.93876,5.72681c-0.0078,0.06705-0.00829,0.15984-0.03138,0.24662
		c-0.02763,0.10387-0.10218,0.17038-0.2158,0.17436c-0.11499,0.00403-0.22172-0.02764-0.26627-0.1424
		c-0.07697-0.1983-0.0804-0.40586-0.02222-0.6091c0.03356-0.11724,0.12314-0.16316,0.25136-0.15753
		c0.13602,0.00598,0.23892,0.0832,0.26614,0.21658C49.93695,5.53553,49.93245,5.61997,49.93876,5.72681z"/>
</g>
</svg>
