<svg id="Layer_1" data-name="Layer 1" xmlns="http://www.w3.org/2000/svg" viewBox="0 0 201.17111 40"><title>logo-cic</title><path d="M133.43442,40H71.15776l.68881-1.1245a35.96754,35.96754,0,0,0-.00214-37.751L71.15562,0h62.27881l-.68955,1.1245a35.969,35.969,0,0,0,0,37.751ZM73.76948,38.52282h57.05314a37.413,37.413,0,0,1,0-37.04564H73.76734A37.41647,37.41647,0,0,1,73.76948,38.52282Z" fill="#32c0ca"/><path d="M116.78078,27.43349h-7.42267V25.95632h5.9455V14.00616h-5.9455V12.529h7.42267ZM95.13236,25.9592h-5.9455v-11.953h5.9455V12.529H87.70969V27.43638h7.42267Zm10.40155-13.46485-4.89825,14.91751h-1.555l4.89891-14.91751Z" fill="#464547"/><path d="M9.4747,18.78247a4.835,4.835,0,0,0-3.78017-1.436c-2.47907,0-4.16033,1.42378-4.16033,3.35068,0,2.00047,1.61995,3.36258,4.24615,3.36258A4.67441,4.67441,0,0,0,9.487,22.59913l1.26439.69967A6.04848,6.04848,0,0,1,5.69452,25.41a6.53757,6.53757,0,0,1-3.91511-1.17827A4.35819,4.35819,0,0,1,1.80393,17.187a6.46324,6.46324,0,0,1,3.89059-1.19053,6.18153,6.18153,0,0,1,5.1182,2.30743Z" fill="#464547"/><path d="M26.4183,25.16433l-1.03144-1.98813H19.41035l-1.0307,1.98813H16.77122l4.70053-8.88575h1.85371L28.026,25.16433ZM22.40437,17.543l-2.26983,4.29556h4.52888Z" fill="#464547"/><path d="M38.62017,17.35869c-1.84071,0-2.81085.46627-2.81085,1.20272,0,.405.25821.67514.77323.85905a29.502,29.502,0,0,0,4.23463.46664c2.20927.28207,3.26449,1.043,3.26449,2.52812,0,1.8656-1.69359,2.958-4.84773,2.958a8.27116,8.27116,0,0,1-5.28985-1.49742l.81-1.06785a8.31837,8.31837,0,0,0,4.4921,1.27628c2.11052,0,3.24-.6134,3.24-1.57091,0-1.264-1.50968-1.264-4.12354-1.43574-2.73729-.18428-4.112-.61377-4.112-2.31961,0-1.6571,1.59543-2.70006,4.47984-2.70006A8.40877,8.40877,0,0,1,43.54146,17.371l-.89583.99429A8.65379,8.65379,0,0,0,38.62017,17.35869Z" fill="#464547"/><path d="M55.89547,17.61654v7.54779H54.42265V17.61654H50.1765v-1.338h9.96586v1.338Z" fill="#464547"/><path d="M142.91274,25.16433V16.27858h1.47282v8.88575Z" fill="#464547"/><path d="M161.69912,25.16433l-2.40544-3.38747h-4.49217v3.38747h-1.47282V16.27858h7.008a2.68678,2.68678,0,0,1,2.99476,2.79851,2.51107,2.51107,0,0,1-2.30743,2.6262l2.381,3.461Zm.12261-6.08723c0-.98166-.60151-1.46056-1.84071-1.46056h-5.1795v2.82274H160.116C161.22022,20.43928,161.82173,19.94841,161.82173,19.0771Z" fill="#464547"/><path d="M180.80938,24.24434a7.06387,7.06387,0,0,1-7.83015-.01263,4.32886,4.32886,0,0,1,.02452-7.0324,6.91343,6.91343,0,0,1,7.79337,0,4.34874,4.34874,0,0,1,.01226,7.045ZM179.7419,18.181a4.87891,4.87891,0,0,0-2.8353-.83453c-2.47907,0-4.18492,1.42378-4.18492,3.36294,0,2.00084,1.63228,3.36258,4.18492,3.36258,2.5403,0,4.161-1.37437,4.161-3.36258A3.01117,3.01117,0,0,0,179.7419,18.181Z" fill="#464547"/><path d="M199.35492,25.16433,192.55546,17.874v7.29032h-1.47289V16.27858H192.911l6.78727,7.29032V16.27858h1.47282v8.88575Z" fill="#464547"/></svg>