<?xml version="1.0" encoding="utf-8"?>
<!-- Generator: Adobe Illustrator 21.1.0, SVG Export Plug-In . SVG Version: 6.00 Build 0)  -->
<svg version="1.1" id="Layer_1" xmlns="http://www.w3.org/2000/svg" xmlns:xlink="http://www.w3.org/1999/xlink" x="0px" y="0px"
	 viewBox="0 0 44.40931 120" enable-background="new 0 0 44.40931 120" xml:space="preserve">
<title>logo-mn</title>
<path fill="#555555" d="M35.67826,112.10308l-0.01063-0.00412h0.21258c0.01818-0.05836,0.0479-0.10094,0.03885-0.13235
	c-0.34139-1.18418-0.784-2.337-1.09373-3.53133c-0.04266-0.11075-0.09803-0.21617-0.165-0.31415l0.03852-0.0122l-0.23438-0.74378
	l-0.01007,0.00307l-0.86846-2.73405l-0.00547,0.00147c-0.08163-0.23442-0.16053-0.46957-0.26352-0.77654
	c-0.02537-0.10358-0.064-0.28439-0.11486-0.46167c-0.03971-0.13832-0.09546-0.272-0.14254-0.40826
	c-0.02578-0.07461-0.04757-0.1506-0.07256-0.22549c-0.11218-0.33609-0.22648-0.67149-0.33674-1.0082
	c-0.06472-0.19762-0.12331-0.39724-0.18465-0.596l-0.00709,0.00079l-0.871-2.72962l-0.03629,0.01079l-0.05048-0.43074
	l-0.19279-0.27595c-0.00765-0.14242-0.02651-0.28402-0.05638-0.42348c-0.04111-0.13788-0.14366-0.25986-0.17221-0.3985
	c-0.02576-0.19602-0.08338-0.38651-0.17059-0.56394c-0.0771-0.1953-0.1282-0.39988-0.152-0.60849
	c-0.13656-0.03473-0.27577-0.05799-0.4162-0.06956c-1.7466-0.00548-3.49321-0.00641-5.23982-0.00281
	c-0.1433,0.0088-0.28589,0.02673-0.42691,0.05368l-0.72847,2.31719c-0.0629,0.17184-0.10659,0.351-0.15857,0.52778
	c-0.03655,0.12429-0.08718,0.24437-0.12635,0.368c-0.03959,0.12493-0.07225,0.252-0.109,0.37789
	c-0.03707,0.127-0.077,0.25314-0.1127,0.38047c-0.025,0.08908-0.04034,0.181-0.06831,0.26906
	c-0.04712,0.16392-0.10283,0.32523-0.16691,0.48329c-0.11483,0.28172-0.1985,0.57516-0.24952,0.87508
	c-0.02557,0.06982-0.06605,0.13322-0.11862,0.18579c-0.03045,0.21219-0.0832,0.42058-0.15738,0.6217
	c-0.06551,0.12866-0.11068,0.2667-0.13389,0.4092c-0.02461,0.11554-0.05806,0.22901-0.10007,0.33942
	c-0.03678,0.11254-0.07894,0.22331-0.117,0.33546c-0.04219,0.12449-0.0838,0.24923-0.12294,0.37471
	c-0.03531,0.11321-0.06585,0.22791-0.10048,0.34133c-0.03441,0.11273-0.07129,0.2247-0.10716,0.337
	c-0.032,0.1-0.0644,0.19993-0.09592,0.30011c-0.06246,0.19853-0.12466,0.39714-0.1866,0.59583
	c-0.06617,0.1866-0.0809,0.39362-0.16284,0.56929c-0.07451,0.14011-0.11805,0.2946-0.12768,0.453
	c0.00079,0.02673-0.00248,0.05343-0.0097,0.07918c-0.09815,0.28666-0.19854,0.57254-0.29671,0.85919
	c-0.04685,0.1368-0.089,0.27522-0.13556,0.41213c-0.03765,0.11071-0.08032,0.2197-0.11775,0.33049
	c-0.02932,0.08678-0.05878,0.174-0.07956,0.26306c-0.02418,0.10363-0.00406,0.23933-0.06385,0.30913
	c-0.257,0.3-0.11311,0.7396-0.37824,1.02971c-0.05591,0.36667-0.15356,0.72574-0.29105,1.07022
	c-0.09118,0.31576-0.2018,0.62557-0.33123,0.92767c-0.10025,0.20046-0.09833,0.43684,0.00517,0.63564
	c0.11518,0,0.23241-0.00034,0.34964,0c1.37312,0.00435,2.74623,0.00798,4.11935,0.01089
	c0.1018-0.00636,0.20286-0.02149,0.30206-0.04525l0.28665-0.60183l0.04918-0.55519c0.2482-0.19811,0.14588-0.53673,0.2774-0.80485
	c0.33383-0.09146,0.68195-0.11894,1.026-0.081c0.34623-0.01245,0.69322-0.00378,1.03988-0.004c0.36-0.00024,0.72-0.00024,1.08,0
	c0.34666,0,0.69358-0.00833,1.0399,0.00239c0.35073-0.0262,0.70333-0.01083,1.05045,0.04578l0.60249,1.889l0.25478,0.15984
	c0.35716,0,0.6366,0.00076,0.916-0.00014C33.30528,112.11151,34.49179,112.10742,35.67826,112.10308z M33.31558,13.59468
	c0.01468-0.40468-0.04762-0.80846-0.1836-1.18989c-0.0192-0.04987-0.03238-0.10185-0.03926-0.15484
	c-0.09427-0.54881-0.1824-1.09873-0.28378-1.64621c-0.06219-0.15849-0.10874-0.32268-0.139-0.49023
	c-0.05814-0.51262-0.16525-1.0185-0.31983-1.51071c-0.0031-0.02-0.03706-0.03531-0.06334-0.05878h-7.19l-0.28935,0.59269
	L24.76692,9.44c-0.07822,0.14322-0.14273,0.29352-0.19266,0.44888c-0.03935,0.16584-0.09379,0.32773-0.16263,0.48366
	c-0.12773,0.315-0.204,0.65048-0.31183,0.97407c-0.05163,0.13362-0.11022,0.26444-0.17552,0.39194
	c-0.06421,0.24171-0.16664,0.4692-0.24357,0.705c-0.09782,0.29987-0.14784,0.6177-0.26755,0.90751
	c-0.18447,0.40617-0.32998,0.82892-0.43456,1.26258c-0.0028,0.04015-0.01679,0.07871-0.04037,0.11133
	c-0.12049,0.14435-0.18411,0.32773-0.17891,0.51569c-0.01227,0.07883-0.01038,0.178-0.05712,0.23
	c-0.12556,0.174-0.18023,0.38924-0.15292,0.60207c-0.05063,0.39295-0.1593,0.77622-0.32247,1.13726l-0.48892-1.486l0.00185,0.00019
	l-0.23613-0.74739l0.0013-0.0002c-0.07656-0.24971-0.15356-0.49935-0.231-0.74892l-0.0034,0.00086
	c-0.21772-0.68521-0.43431-1.37072-0.64976-2.05651l-0.01147,0.00317l-0.34805-1.22107l-0.13643-0.23188
	c-0.04014-0.20638-0.09628-0.40933-0.16791-0.607c-0.09987-0.32652-0.19181-0.65552-0.28292-0.98463
	c-0.02818-0.10178-0.04276-0.20733-0.05919-0.2893l-0.2868-0.31222c-0.42609,0-0.85222,0-1.27837,0
	C16.18276,8.52836,14.31589,8.528,12.449,8.528c-0.11478,0.00006-0.22954,0.01793-0.36751,0.02944
	c-0.12334,0.48361-0.21594,0.97455-0.27723,1.46986c-0.00035,0.12022-0.02255,0.23937-0.06553,0.35165
	c-0.18006,0.52767-0.19484,1.0914-0.35987,1.62192c-0.00481,0.02626-0.00643,0.05301-0.00485,0.07966
	c-0.02677,0.518-0.2724,0.99943-0.25591,1.525c0.0008,0.02705-0.00708,0.05364-0.02248,0.07588
	c-0.12632,0.22029-0.18264,0.47379-0.1615,0.72685c0.00058,0.17266-0.03155,0.34387-0.0947,0.50457
	c-0.06832,0.15721-0.1099,0.32473-0.123,0.49564c-0.09172,0.57634-0.19357,1.15106-0.29185,1.72635
	c-0.00264,0.01309-0.00671,0.02586-0.01215,0.03806c-0.10903,0.28737-0.16756,0.59144-0.173,0.89875
	c0.00842,0.11986-0.01077,0.24005-0.05607,0.35133c-0.10312,0.21653-0.15685,0.45325-0.15731,0.69308
	c0.00639,0.1197-0.01223,0.23941-0.05466,0.35152c-0.12727,0.24924-0.18469,0.5283-0.16617,0.80754
	c0.00348,0.11953-0.01732,0.23852-0.06114,0.34978c-0.10352,0.24444-0.15961,0.50633-0.16527,0.77173
	c-0.07016,0.49824-0.19869,0.98666-0.28731,1.48259c-0.053,0.29667-0.12992,0.59371-0.1735,0.89616
	c-0.02242,0.15554-0.07151,0.30715-0.1067,0.461c-0.09906,0.26483-0.10848,0.55486-0.02682,0.82556
	c2.18491,0,4.35782,0,6.53073-0.00021c0.06641,0,0.13284-0.00263,0.1992-0.00544c0.01326-0.0018,0.02611-0.00586,0.038-0.012
	c0.01213-0.00479,0.0237-0.01091,0.03447-0.01827c0.01074-0.00769,0.01967-0.01793,0.05938-0.05522
	c0.008-0.09995,0.01657-0.23057,0.02945-0.36077c-0.00074-0.11962,0.01507-0.23877,0.047-0.35406
	c0.13175-0.39227,0.18906-0.80569,0.169-1.219c-0.00994-0.33335,0.03895-0.66586,0.14442-0.98224
	c0.04696-0.15279,0.07076-0.31175,0.0706-0.47159c0.01638-0.27941,0.01517-0.55981,0.02733-0.83953
	c-0.01003-0.13316,0.00529-0.26701,0.04517-0.39445c0.1186-0.32541,0.17272-0.6708,0.15934-1.0169
	c0.00039-0.29288,0.02996-0.58498,0.08826-0.872c0.06763-0.24296,0.10785-0.49272,0.11991-0.74463
	c0.01606-0.31923,0.01837-0.63924,0.039-0.95811c-0.00522-0.18944,0.02934-0.37786,0.10146-0.55311l0.19221,0.01347l0.14934,1.09211
	c0.05629,0.08433,0.142,0.15613,0.15112,0.23658c0.02699,0.28816,0.10366,0.56947,0.22662,0.83147
	c0.13631,0.2819,0.207,0.59486,0.3173,0.89019c0.11015,0.295,0.24379,0.58143,0.34871,0.87813
	c0.10935,0.3092,0.19618,0.62634,0.29433,0.93954c0.01177,0.03757,0.03415,0.07167,0.04927,0.10835
	c0.11479,0.27836,0.23866,0.55349,0.34075,0.83646c0.10677,0.29593,0.18588,0.60176,0.2896,0.8989
	c0.07335,0.21014,0.16754,0.413,0.25243,0.61913l-0.0319,0.01356l0.13633,0.16036c0.10035,0.47115,0.27698,0.92274,0.52291,1.33695
	c1.4057-0.0032,2.78822,0.01576,4.15329-0.00827l0.468-1.17351l0.03482,0.01324l0.04984-0.35557l0.03625,0.01277l0.89826-2.34138
	l-0.03045-0.01105l0.12829-0.15982c0.09585-0.35152,0.2126-0.69701,0.34964-1.03461c0.14822-0.31155,0.26032-0.6328,0.38071-0.9534
	c0.11966-0.31868,0.26056-0.62938,0.447-1.07449c0.05472-0.17671,0.15177-0.48993,0.24867-0.80319
	c0.09779-0.31615,0.19543-0.63235,0.31959-1.03414c0.08583,0.442,0.17093,0.797,0.22009,1.15688
	c0.05259,0.35561,0.08012,0.71447,0.08239,1.07394c0.02366,0.36601,0.07511,0.72968,0.15391,1.08789
	c0.04769,0.32822,0.05467,0.66251,0.07594,0.99436c-0.01702,0.319,0.00738,0.63886,0.0726,0.95158
	c0.08147,0.26853,0.12662,0.54676,0.13425,0.82727c-0.00157,0.34619,0.02534,0.69192,0.08047,1.0337
	c0.09709,0.44224,0.15088,0.89289,0.1606,1.34556c0.00654,0.12965,0.03189,0.25834,0.05105,0.40629
	c0.12937,0.01833,0.23161,0.04232,0.33458,0.046c1.64768,0.05862,6.22377,0.02252,6.57043-0.05453
	c0.01966-0.38133-0.01981-0.76341-0.117-1.13267c-0.05483-0.19123-0.09777-0.38567-0.12856-0.58221
	c-0.00448-0.10628-0.02097-0.21171-0.04916-0.31428c-0.11701-0.29797-0.18236-0.61371-0.19323-0.93365
	c0.00165-0.0934-0.01598-0.18615-0.05179-0.27243c-0.08939-0.19368-0.13559-0.40449-0.13539-0.6178
	c-0.00567-0.19911-0.04135-0.39622-0.10583-0.58469c-0.07538-0.1692-0.1156-0.35194-0.11821-0.53715
	c-0.0129-0.27819-0.072-0.5523-0.17489-0.81109c-0.06869-0.27003-0.10445-0.54738-0.10649-0.826
	c-0.00452-0.03776-0.03614-0.07151-0.04627-0.10951c-0.05696-0.1609-0.09761-0.32711-0.12135-0.49613
	c-0.0304-0.54629-0.28911-1.0509-0.28055-1.60257c-0.00048-0.02696-0.00854-0.05325-0.02327-0.07584
	c-0.1013-0.18906-0.14751-0.40276-0.13338-0.61678c0.0222-0.2726-0.05528-0.544-0.21806-0.76379
	C33.58046,14.33643,33.50135,13.942,33.31558,13.59468z M24.73608,30.41074c-0.10633-0.00587-0.17263-0.01271-0.23894-0.01273
	c-1.81355-0.00049-3.6271-0.00035-5.44065,0.0004c-0.07962-0.00614-0.1597-0.00031-0.23759,0.01731
	c-0.05846,0.02574-0.11255,0.06043-0.16033,0.10282c0.0128,0.2361,0.03289,0.43447,0.033,0.63286
	c0.00153,4.86726,0.00155,9.73452,0.00006,14.60178c0.01292,0.13263,0.00574,0.26645-0.02131,0.39693
	c-0.03745,0.18714-0.03132,0.38039,0.01793,0.56478c0.1034,0.02235,0.20825,0.03739,0.31377,0.045
	c1.77353,0.00288,3.54707,0.00388,5.32061,0.003c0.1592,0.02009,0.31533-0.05534,0.39854-0.19255c0-0.1508,0-0.36257,0-0.57434
	c0.00018-1.40017,0.00007-2.80035-0.00033-4.20051c0.03957-0.3319,0.00143-0.66845-0.1114-0.98308
	c-0.01601-0.05098-0.02184-0.10461-0.01716-0.15784c-0.00881-0.26633-0.01582-0.53273-0.02381-0.79909
	c-0.00281-0.212-0.03755-0.42236-0.10306-0.624c-0.06469-0.24421-0.10113-0.49503-0.10858-0.74755
	c-0.00568-0.06215,0.04712-0.12964,0.0885-0.23351l5.39237,8.44841c0.3421,0.07789,5.70186,0.09007,6.1302,0.01464
	c0.00657-0.1353,0.01962-0.27881,0.01965-0.42232c0.00093-4.77391,0.00102-9.54782,0.00029-14.32174
	c0-0.42669-0.00026-0.85343-0.00652-1.28c-0.00975-0.0982-0.02691-0.19551-0.05133-0.29112c-0.51084,0-1.00267,0-1.4945,0
	c-0.49339,0-0.98677-0.00004-1.48016-0.00012c-0.50673,0.00008-1.01355-0.00579-1.52015,0.00236
	c-0.48751,0.00784-0.97743-0.031-1.4779,0.0246c-0.01145,0.13876-0.02736,0.24267-0.02751,0.34661
	c-0.00267,1.81355-0.00667,3.6271-0.001,5.44063c-0.00323,0.26608,0.02509,0.53159,0.08437,0.791
	c0.07441,0.26894,0.12077,0.54485,0.13833,0.82334c-0.00589,0.27917,0.04342,0.55676,0.14512,0.81682
	c0.05306,0.17772,0.07422,0.36344,0.06249,0.54854c0.00254,0.05179-0.041,0.10585-0.07449,0.18492L24.73608,30.41074z
	 M8.47857,52.15346c-0.00614,0.10756-0.0184,0.22376-0.01858,0.34c-0.00326,2.13288-0.00559,4.26577-0.007,6.39866
	c-0.00121,3.02607-0.00103,6.05213,0.00055,9.07821c-0.02751,0.20815,0.00164,0.41986,0.08436,0.61283
	c0.09858,0.01631,0.198,0.02705,0.29779,0.03218c0.54652,0.00144,1.093-0.0035,1.63957-0.00418
	c0.8665-0.00107,1.733,0.00087,2.59948-0.00187c0.18474,0.03876,0.37638-0.02092,0.50646-0.15771
	c0.00618-0.08712,0.02183-0.20532,0.02186-0.32351c0.00057-1.93275-0.00054-3.86551-0.00333-5.79826
	c0.00639-0.11988-0.00662-0.24-0.03853-0.35573c-0.10972-0.46675-0.16662-0.94436-0.16963-1.42382
	c-0.01849-0.11792,0.02749-0.23673,0.12054-0.31148l4.45666,8.14351l0.2425,0.21944c1.65457,0.0671,3.31151,0.04729,4.964-0.05934
	c0.01464-0.02174,0.02725-0.04479,0.03767-0.06885c0.01258-0.03793,0.02208-0.07681,0.0284-0.11626
	c0.01044-0.05225,0.01665-0.10526,0.01859-0.15851c0.00215-5.10564,0.00349-10.21128,0.004-15.31692
	c0-0.22617-0.01061-0.45235-0.01724-0.6785c-0.00212-0.01292-0.00737-0.02514-0.01529-0.03557
	c-0.00786-0.01121-0.01645-0.0219-0.0257-0.032c-0.02123-0.01465-0.04492-0.02539-0.06994-0.03169
	c-0.13283-0.00735-0.26591-0.01449-0.39888-0.014c-1.51905,0.00583-3.0381,0.01273-4.55715,0.02068
	c-0.01278,0.00255-0.02453,0.00878-0.03382,0.01792c-0.01592,0.01482-0.03102,0.03051-0.04521,0.047
	c-0.00916,0.05728-0.01498,0.11504-0.01746,0.173c-0.00138,1.87959-0.00146,3.75919-0.00026,5.63878
	c-0.02201,0.22573-0.00731,0.45354,0.04356,0.67456c0.12626,0.46182,0.19003,0.93849,0.18961,1.41726
	c0.021,0.12817,0.05375,0.25413,0.09782,0.3763c0.08989,0.20349,0.09975,0.4334,0.02762,0.64384
	c-0.13313-0.1924-0.25065-0.3389-0.34218-0.50015c-0.12855-0.22649-0.234-0.46592-0.35617-0.69624
	c-0.178-0.33562-0.36669-0.66558-0.54219-1.00245c-0.24294-0.46633-0.477-0.93729-0.71674-1.40528
	c-0.07615-0.14863-0.15846-0.2941-0.23795-0.441c-0.04214-0.091-0.11024-0.16847-0.156-0.2574
	c-0.18031-0.35024-0.34629-0.708-0.53155-1.0555c-0.18925-0.355-0.39885-0.699-0.592-1.052
	c-0.14457-0.26422-0.27849-0.53432-0.41474-0.803c-0.16477-0.325-0.32052-0.65469-0.49231-0.97587
	c-0.1471-0.275-0.31131-0.54083-0.459-0.79524C12.85425,52.04774,8.80579,52.0751,8.47857,52.15346z M36.43483,79.98175
	c0.01961-0.27175-0.04025-0.54334-0.17226-0.78168c-0.03687-0.08553-0.06015-0.17628-0.069-0.269
	c-0.0154-0.07753-0.03758-0.15356-0.06629-0.22721c-0.119-0.25979-0.2351-0.52168-0.37026-0.77312
	c-0.16856-0.33852-0.35899-0.6657-0.57008-0.97946c-0.23842-0.31069-0.49514-0.6069-0.76881-0.88705
	c-0.64936-0.71717-1.44391-1.28794-2.33085-1.67439c-0.36705-0.20089-0.76379-0.34195-1.17528-0.41785
	c-0.02686-0.00101-0.05299-0.00904-0.07579-0.02327c-0.25553-0.14674-0.5492-0.21349-0.84306-0.19162
	c-0.14309-0.02174-0.28462-0.05268-0.42373-0.09262c-0.1815-0.03874-0.36218-0.08536-0.54571-0.10981
	c-0.83576,0.01181-1.66912,0.09271-2.49155,0.24188c-0.02695-0.00067-0.05352,0.00649-0.07648,0.02062
	c-0.29518,0.22482-0.70658,0.131-0.99778,0.36508c-0.55126,0.16891-1.07131,0.42653-1.53971,0.76272
	c-0.70396,0.45069-1.31932,1.02661-1.81559,1.69922c-0.22289,0.30526-0.44921,0.61037-0.64193,0.9346
	c-0.18279,0.28775-0.33064,0.59626-0.44043,0.919c-0.14099,0.29782-0.24122,0.61327-0.298,0.93785
	c-0.00207,0.06158-0.05179,0.12045-0.07307,0.18276c-0.04012,0.09664-0.07028,0.19713-0.09,0.2999
	c-0.00825,0.33337-0.07478,0.66272-0.19658,0.97315c-0.0257,0.07595-0.03459,0.15659-0.02605,0.23631
	c-0.001,0.69294-0.00126,1.38589,0.00348,2.0788c0.00732,0.0923,0.02312,0.18373,0.0472,0.27313
	c0.04832,0.24625,0.10022,0.49181,0.1458,0.73856c0.02652,0.14358,0.02828,0.29331,0.06835,0.43246
	c0.06885,0.23909,0.159,0.47207,0.24017,0.7076c0.05554,0.18729,0.12137,0.37138,0.19721,0.55141
	c0.12086,0.26182,0.25194,0.52,0.39559,0.77c0.18531,0.34442,0.4035,0.67011,0.65154,0.97251
	c0.27367,0.33132,0.56869,0.64441,0.88318,0.93726c0.47945,0.39542,0.99121,0.74996,1.52989,1.05989
	c0.2944,0.1413,0.58611,0.28822,0.85074,0.41873c0.1551,0.01692,0.3071,0.05524,0.45169,0.11386
	c0.16389,0.08856,0.34481,0.14107,0.53065,0.154c0.08003,0.00032,0.15914,0.01709,0.23242,0.04927
	c0.25155,0.12665,0.53316,0.18146,0.81384,0.15841c0.546,0.01862,1.09289,0.0339,1.639,0.02457
	c0.41241,0.02308,0.82601-0.012,1.22864-0.10421c0.39505-0.04474,0.77912-0.15874,1.13461-0.33676
	c0.47217-0.10698,0.92365-0.29055,1.3365-0.54343c0.29906-0.16033,0.58253-0.34819,0.84673-0.56112
	c0.55804-0.42896,1.05946-0.92693,1.49227-1.482c0.20552-0.26618,0.3835-0.55254,0.53117-0.85468
	c0.146-0.29613,0.31911-0.5791,0.45612-0.8862c0.08779-0.19679,0.1111-0.40923,0.20623-0.59349
	c0.15551-0.46131,0.28415-0.93124,0.38528-1.40744c0.00639-0.02599,0.00821-0.05289,0.00537-0.0795
	c-0.00043-1.05317-0.00127-2.10633-0.00251-3.15949C36.65985,80.34657,36.58544,80.13448,36.43483,79.98175z M9.03958,89.83322
	c0.16007,0.04319,0.31416,0.08289,0.46714,0.12655c0.177,0.05053,0.35289,0.10515,0.52962,0.1568
	c0.06547,0.00835,0.12939,0.02617,0.18973,0.05292c0.19955,0.10885,0.42305,0.16632,0.65035,0.16725
	c0.11726,0.01888,0.23331,0.04463,0.34756,0.07711c0.12549,0.0406,0.25375,0.07207,0.38379,0.09413
	c0.95685,0.08118,1.91854,0.08823,2.87647,0.02107c0.10506-0.0119,0.20877-0.03362,0.30978-0.06488
	c0.15264-0.03956,0.303-0.08813,0.45594-0.12635c0.0927-0.00716,0.18434-0.02448,0.27326-0.05167
	c0.42684-0.22326,0.89155-0.35186,1.3167-0.59434c0.44439-0.25294,0.85285-0.56435,1.21445-0.92589
	c0.56547-0.50318,0.97596-1.15699,1.18345-1.88493c0.15987-0.21442,0.23717-0.47925,0.21777-0.746
	c-0.00121-0.04025,0.01145-0.07968,0.03585-0.11171c0.12099-0.12881,0.17617-0.30602,0.14971-0.48075
	c0.01018-0.55907,0.01394-1.11878-0.00385-1.67748c-0.02629-0.1635-0.07367-0.32289-0.14093-0.47421
	c0.04629-0.40932-0.28986-0.7055-0.3525-1.0816c-0.37276-0.6294-0.88818-1.16243-1.50471-1.55612
	c-0.29574-0.17171-0.60758-0.31569-0.93045-0.48166l-0.34556-0.05757c-0.12554-0.13884-0.309-0.21065-0.49543-0.19392
	c-0.11952,0.01318-0.24046-0.00333-0.35207-0.04807c-0.37169-0.24088-0.84645-0.1167-1.21136-0.36227
	c-0.35837-0.02039-0.67846-0.23093-0.83911-0.55192c-0.07609-0.30211,0.06524-0.61694,0.34156-0.76085
	c0.28427-0.17222,0.61028-0.26328,0.94264-0.26332c0.42939-0.00342,0.78082,0.2627,1.19632,0.27434l1.625,0.86054l0.22388-0.03723
	c0.02645-0.16269,0.07268-0.32153,0.13768-0.473c0.10209-0.17135,0.16366-0.36377,0.18-0.56256
	c0.01033-0.05215,0.02733-0.10275,0.05056-0.15056c0.07659-0.20854,0.15344-0.41699,0.23053-0.62534l-0.04355-0.01918l0.18007-0.208
	l-0.03426-0.01454l0.63624-1.91058c-0.036-0.06873-0.05613-0.15965-0.11275-0.20478c-0.13508-0.11709-0.28518-0.21563-0.44634-0.293
	c-0.22631-0.09641-0.4476-0.20421-0.663-0.323c-0.46985-0.25991-1.00259-0.31909-1.4764-0.547
	c-0.46455-0.01743-0.92454-0.09822-1.36722-0.24014c-0.03935-0.00755-0.07955-0.00967-0.11947-0.00629
	c-0.30663,0.00156-0.61338-0.0006-0.91982,0.00816c-0.11976-0.00816-0.23982,0.01067-0.35133,0.0551
	c-0.27004,0.11373-0.56098,0.16943-0.85393,0.16347c-0.06677-0.00161-0.13323,0.00964-0.19575,0.03316
	c-0.34773,0.19463-0.76287,0.20754-1.10468,0.41613c-0.10961,0.06931-0.22289,0.13263-0.33934,0.18968
	c-0.25017,0.10319-0.48499,0.24023-0.69788,0.40729c-0.27474,0.23676-0.55619,0.466-0.825,0.70932
	C9.28517,75.87959,8.97658,76.2883,8.748,76.742c-0.13463,0.25436-0.2509,0.51801-0.34793,0.78895
	c-0.25424,0.64108-0.38246,1.32519-0.37762,2.01483c0.01088,0.13297,0.00954,0.26667-0.004,0.3994
	c0.0141,0.50414,0.10841,1.00282,0.27938,1.47729c0.04191,0.19312,0.12626,0.3745,0.24694,0.531
	c0.30516,0.4217,0.65253,0.81118,1.03673,1.16239c0.10207,0.09717,0.21567,0.18143,0.33827,0.25092
	c0.21709,0.11572,0.44825,0.20474,0.66824,0.31543c0.35017,0.18285,0.72626,0.311,1.11522,0.38
	c0.47144,0.13281,0.95356,0.22424,1.44089,0.27324c0.06661,0.00547,0.13169,0.02284,0.19216,0.05129
	c0.148,0.05584,0.29414,0.11668,0.401,0.15947l0.3205,0.28725v0.79041l-0.52081,0.40656
	c-0.52726,0.06947-1.0606,0.08031-1.59025,0.03235c-0.07818-0.01456-0.15425-0.03874-0.22649-0.072
	c-0.27529-0.122-0.5503-0.24485-0.82193-0.37467c-0.19734-0.09431-0.38921-0.20008-0.50087-0.25792
	c-0.25344-0.1968-0.4352-0.34042-0.61968-0.48047c-0.16484-0.17333-0.36558-0.30854-0.58816-0.39616
	c-0.08484,0.13885-0.15978,0.28352-0.22425,0.43292c-0.1088,0.30892-0.19488,0.62581-0.29513,0.93785
	c-0.02765,0.06019-0.05847,0.11888-0.09233,0.17581c-0.03745,0.08384-0.07233,0.16924-0.10163,0.25623
	c-0.06236,0.18516-0.12042,0.37177-0.17344,0.53664l-0.66557,1.85742l-0.05045-0.01209v0.49551L9.03958,89.83322z
	 M35.99006,52.13949c-0.36529-0.06516-9.46224-0.06927-9.82515-0.009c-0.08092,0.20954-0.10361,0.43707-0.06568,0.65846
	c-0.00439,3.59924-0.00546,7.19849-0.00323,10.79775c0.0002,1.50635,0.00233,3.01268,0.0064,4.519
	c0.0077,0.14962,0.02365,0.29871,0.04777,0.44657c0.04994,0.02023,0.10147,0.03628,0.15406,0.048
	c0.07939,0.00779,0.15958,0.01029,0.23942,0.01018c3.17193-0.00431,6.34387-0.00916,9.51581-0.01454
	c0.01324-0.00178,0.02579-0.00694,0.03644-0.015c0.01805-0.01374,0.03532-0.02848,0.05173-0.04414
	c0.0617-0.31793,0.0775-0.64307,0.04693-0.96549c0.00962-0.31964,0.00217-0.6398,0.00208-0.95974
	c-0.0001-0.33326,0.0081-0.66681-0.00295-0.99972c0.02796-0.33833,0.00954-0.67889-0.05474-1.01222
	c-0.15455-0.0056-0.29805-0.01522-0.44156-0.01533c-1.34637-0.00103-2.69275-0.00156-4.03912-0.0016
	c-0.15652-0.00025-0.313-0.0184-0.50123-0.03026c-0.03848-0.12968-0.06515-0.26258-0.07968-0.39707
	c-0.00751-0.57309-0.00381-1.14636,0.00037-1.71953c0.0082-0.08256,0.02335-0.16428,0.04529-0.2443
	c0.1729-0.01,0.331-0.02664,0.48913-0.02713c0.78649-0.00242,1.573-0.0007,2.3595-0.00021
	c0.41325,0.00026,0.82649,0.002,1.23974,0.001c0.15954-0.00037,0.32477,0.00943,0.43633-0.16794v-3.5059
	c-0.139-0.18275-0.30654-0.149-0.46413-0.14917c-1.18642-0.00106-2.37283-0.00223-3.55924-0.00349
	c-0.16908-0.00044-0.33811-0.01846-0.5374-0.03011c-0.01889-0.79928-0.032-1.56422,0.00779-2.36194
	c0.19937-0.01537,0.36823-0.03935,0.53714-0.03967c1.29305-0.00242,2.58613,0.00175,3.87918-0.00213
	c0.15352-0.00046,0.32183,0.05088,0.47905-0.09022L35.99006,52.13949z M11.41641,112.08086
	c0.15338,0.01308,0.27043,0.0316,0.3875,0.03176c1.50627,0.00208,3.01254,0.00212,4.51881,0.00012
	c0.12882-0.00019,0.2576-0.02139,0.41118-0.035c0.0183-0.16031,0.04213-0.28933,0.04589-0.41894
	c0.00733-0.25307,0.0041-0.50647,0.00409-0.75974c-0.00019-3.13248,0.00003-6.26494,0.00065-9.39741
	c-0.02885-0.20213-0.00295-0.40829,0.075-0.597c0.07405-0.02534,0.15098-0.04133,0.229-0.04756
	c0.33225-0.0112,0.66474,0.0132,0.99179,0.07276c0.44428,0.08574,0.89644,0.12376,1.3488,0.11342
	c0.10152-0.00275,0.20273-0.0124,0.30294-0.0289c0.0057-0.60263-0.018-1.18376-0.01274-1.76432
	c0.00536-0.58646,0.0012-1.173,0.00121-1.75951c0-0.58381,0-1.16762,0-1.76853c-0.07369-0.0244-0.14942-0.04214-0.22628-0.053
	c-1.12509-0.06065-10.67174-0.01893-10.98442,0.04521c-0.08282,0.36892-0.07943,4.93317,0.00961,5.31506
	c0.37567,0,0.75783,0.00082,1.14-0.00128c0.03926-0.00611,0.078-0.01521,0.11587-0.02722
	c0.18152-0.03037,0.36257-0.06546,0.5452-0.08681c0.21088-0.02467,0.42305-0.03959,0.635-0.05321
	c0.14744-0.03933,0.30478-0.00195,0.41877,0.09952c0,0.14944,0,0.33459,0,0.51975
	c-0.00027,3.37241,0.00005,6.74482,0.00094,10.11723C11.37532,111.75166,11.40089,111.906,11.41641,112.08086z M8.74266,46.73685
	c0.64745,0.05711,5.88088,0.03609,6.20444-0.03067c0.00547-0.15948,0.01632-0.32911,0.01636-0.49874
	c0.00067-3.14572,0.00057-6.29144-0.00028-9.43717c-0.00011-1.95941-0.00071-3.91881-0.00181-5.87821
	c0.03602-0.16969,0.00437-0.34674-0.08821-0.49344c-1.004,0-2.0284-0.00345-3.05281,0.001
	c-1.034,0.00445-2.06864-0.02264-3.09568,0.01632C8.6537,30.95395,8.67066,46.40718,8.74266,46.73685z M18.59907,46.0032
	l0.02865-0.00478V30.97906l-0.02865,0.00008V46.0032z M29.32968,79.1597c0.19452,0.09979,0.36,0.18282,0.52376,0.26908
	c0.35396,0.24688,0.66432,0.55099,0.91834,0.89986c0.08364,0.27475,0.18994,0.54208,0.31781,0.79925
	c0.15616,0.52223,0.20943,1.06982,0.15685,1.61236c-0.00476,0.10552-0.02382,0.20992-0.05666,0.31032
	c-0.07049,0.20085-0.12257,0.40771-0.15558,0.618c-0.14474,0.21738-0.285,0.43791-0.43515,0.65147
	c-0.27417,0.44971-0.72129,0.7668-1.23636,0.87682c-0.06436,0.01463-0.12628,0.03843-0.18387,0.07068
	c-0.0477,0.02872-0.09323,0.0609-0.13624,0.09626h-0.98174c-0.18964-0.074-0.3351-0.12558-0.47612-0.18731
	c-0.11814-0.05172-0.22888-0.12028-0.34675-0.1727c-0.42437-0.21377-0.77217-0.55366-0.99564-0.973
	c-0.10531-0.19276-0.19914-0.39157-0.281-0.59539c-0.15781-0.78993-0.15069-1.60395,0.02092-2.391
	c0.26761-0.88435,0.94457-1.58582,1.81885-1.88469H29.32968 M29.45213,106.49724c-1.01927,0.0788-2.04235,0.0965-3.06374,0.053
	c-0.14246-0.0195-0.28385-0.04623-0.4236-0.08007c-0.06298-0.17297-0.03753-0.36581,0.06818-0.51651
	c0.04676-0.0634,0.07676-0.13758,0.08722-0.21566c0.04008-0.20653,0.09672-0.4095,0.16936-0.60694
	c0.14725-0.42119,0.22814-0.86559,0.35875-1.29481l0.23113-0.87982c0.14721-0.23285,0.22569-0.50253,0.22641-0.778
	c0.05379-0.17156,0.10881-0.34274,0.161-0.51477c0.04567-0.15051,0.08829-0.30192,0.132-0.453
	c0.04032-0.09789,0.06829-0.20041,0.08327-0.30521c0.03418-0.27918,0.15392-0.54094,0.3428-0.74935
	c0.03273,0.14372,0.06046,0.24115,0.07632,0.34047c-0.00356,0.17383,0.0541,0.34338,0.16289,0.479
	c0.02899,0.0285,0.04561,0.06725,0.04627,0.10789c-0.0304,0.39833,0.22437,0.73066,0.25478,1.1147
	c0.00941,0.07923,0.02706,0.15726,0.05267,0.23283c0.0495,0.21873,0.11766,0.43281,0.20372,0.6399
	c0.186,0.3723,0.14139,0.8107,0.36161,1.17055c0.02602,0.0749,0.04243,0.15279,0.04884,0.23181
	c0.03437,0.12468,0.07591,0.24738,0.11533,0.37065c0.00392,0.01223,0.019,0.02186,0.02052,0.03376
	c0.05868,0.45843,0.29958,0.87219,0.32971,1.3362C29.49375,106.30978,29.47849,106.40491,29.45213,106.49724z M35.66763,112.09896
	l0.02185,0.00389l-0.01121,0.00023L35.66763,112.09896z M41.39485,3.01446v113.97108H3.01446V3.01446H41.39485 M44.40931,0H0v120
	h44.40931V0z"/>
</svg>
