<?xml version="1.0" encoding="utf-8"?>
<!-- Generator: Adobe Illustrator 21.1.0, SVG Export Plug-In . SVG Version: 6.00 Build 0)  -->
<svg version="1.1" id="Layer_1" xmlns="http://www.w3.org/2000/svg" xmlns:xlink="http://www.w3.org/1999/xlink" x="0px" y="0px"
	 viewBox="0 0 93.8 64" style="enable-background:new 0 0 93.8 64;" xml:space="preserve">
<title>pencil</title>
<rect y="57.6" width="34.9" height="4.1"/>
<path d="M91.6,5.7l-5.7-4.4c-2.5-2-6.1-1.5-8.1,1l-7.1,9.1H0v4.1h67.5l-8.8,11.3H0v4.1h55.6l-8.8,11.3H0v4.1h43.6L42.3,48l-0.7,16
	L57,59.5l35.5-45.8C94.5,11.3,94.1,7.6,91.6,5.7C91.6,5.7,91.6,5.7,91.6,5.7z M89.3,11.2L54.6,56l-8.6,2.5l0.4-9L81,4.7
	c0.6-0.7,1.6-0.8,2.3-0.3L89,8.9c0.3,0.3,0.6,0.7,0.6,1.1C89.7,10.4,89.6,10.9,89.3,11.2z"/>
</svg>
